<svg xmlns="http://www.w3.org/2000/svg" xmlns:xlink="http://www.w3.org/1999/xlink" width="150" zoomAndPan="magnify" viewBox="0 0 112.5 52.499999" height="70" preserveAspectRatio="xMidYMid meet" version="1.0"><defs><g/><clipPath id="047202d1b0"><path d="M 0.28125 0 L 111.722656 0 L 111.722656 52.003906 L 0.28125 52.003906 Z M 0.28125 0 " clip-rule="nonzero"/></clipPath><clipPath id="0214ea21a8"><path d="M 8.628906 5.222656 L 56.386719 5.222656 L 56.386719 47.011719 L 8.628906 47.011719 Z M 8.628906 5.222656 " clip-rule="nonzero"/></clipPath></defs><g clip-path="url(#047202d1b0)"><path fill="#ffffff" d="M 0.28125 0 L 112.21875 0 L 112.21875 58.953125 L 0.28125 58.953125 Z M 0.28125 0 " fill-opacity="1" fill-rule="nonzero"/><path fill="#ffffff" d="M 0.28125 0 L 112.21875 0 L 112.21875 52.234375 L 0.28125 52.234375 Z M 0.28125 0 " fill-opacity="1" fill-rule="nonzero"/><path fill="#ffffff" d="M 0.28125 0 L 112.21875 0 L 112.21875 52.234375 L 0.28125 52.234375 Z M 0.28125 0 " fill-opacity="1" fill-rule="nonzero"/></g><g fill="#00131e" fill-opacity="1"><g transform="translate(54.441173, 32.910692)"><g><path d="M 1.671875 -3.875 C 1.878906 -3.875 2.082031 -3.84375 2.28125 -3.78125 C 2.476562 -3.71875 2.625 -3.660156 2.71875 -3.609375 L 2.859375 -3.515625 L 2.5 -2.828125 C 2.476562 -2.835938 2.441406 -2.859375 2.390625 -2.890625 C 2.335938 -2.921875 2.242188 -2.957031 2.109375 -3 C 1.972656 -3.050781 1.847656 -3.078125 1.734375 -3.078125 C 1.585938 -3.078125 1.472656 -3.046875 1.390625 -2.984375 C 1.316406 -2.929688 1.28125 -2.851562 1.28125 -2.75 C 1.28125 -2.695312 1.296875 -2.644531 1.328125 -2.59375 C 1.367188 -2.550781 1.429688 -2.503906 1.515625 -2.453125 C 1.609375 -2.398438 1.6875 -2.359375 1.75 -2.328125 C 1.820312 -2.296875 1.929688 -2.25 2.078125 -2.1875 C 2.328125 -2.082031 2.535156 -1.941406 2.703125 -1.765625 C 2.878906 -1.585938 2.96875 -1.382812 2.96875 -1.15625 C 2.96875 -0.9375 2.925781 -0.742188 2.84375 -0.578125 C 2.769531 -0.421875 2.664062 -0.296875 2.53125 -0.203125 C 2.394531 -0.109375 2.242188 -0.0390625 2.078125 0 C 1.910156 0.0390625 1.726562 0.0625 1.53125 0.0625 C 1.363281 0.0625 1.203125 0.046875 1.046875 0.015625 C 0.890625 -0.015625 0.753906 -0.0546875 0.640625 -0.109375 C 0.535156 -0.160156 0.4375 -0.207031 0.34375 -0.25 C 0.257812 -0.300781 0.203125 -0.34375 0.171875 -0.375 L 0.109375 -0.4375 L 0.546875 -1.15625 C 0.578125 -1.125 0.625 -1.082031 0.6875 -1.03125 C 0.75 -0.988281 0.863281 -0.925781 1.03125 -0.84375 C 1.195312 -0.769531 1.34375 -0.734375 1.46875 -0.734375 C 1.832031 -0.734375 2.015625 -0.859375 2.015625 -1.109375 C 2.015625 -1.160156 2 -1.207031 1.96875 -1.25 C 1.945312 -1.289062 1.90625 -1.332031 1.84375 -1.375 C 1.78125 -1.425781 1.722656 -1.460938 1.671875 -1.484375 C 1.617188 -1.515625 1.535156 -1.554688 1.421875 -1.609375 C 1.304688 -1.660156 1.21875 -1.703125 1.15625 -1.734375 C 0.925781 -1.847656 0.75 -1.988281 0.625 -2.15625 C 0.5 -2.332031 0.4375 -2.515625 0.4375 -2.703125 C 0.4375 -3.046875 0.5625 -3.328125 0.8125 -3.546875 C 1.0625 -3.765625 1.347656 -3.875 1.671875 -3.875 Z M 1.671875 -3.875 "/></g></g></g><g fill="#00131e" fill-opacity="1"><g transform="translate(58.188309, 32.910692)"><g><path d="M 2.453125 -3.796875 L 2.453125 -3.046875 L 1.140625 -3.046875 L 1.140625 -2.28125 L 2.390625 -2.28125 L 2.390625 -1.53125 L 1.140625 -1.53125 L 1.140625 -0.765625 L 2.453125 -0.765625 L 2.453125 0 L 0.28125 0 L 0.28125 -3.796875 Z M 2.453125 -3.796875 "/></g></g></g><g fill="#00131e" fill-opacity="1"><g transform="translate(61.510893, 32.910692)"><g><path d="M 2.296875 -0.78125 C 2.429688 -0.78125 2.5625 -0.800781 2.6875 -0.84375 C 2.8125 -0.882812 2.898438 -0.921875 2.953125 -0.953125 L 3.046875 -1.015625 L 3.421875 -0.28125 C 3.398438 -0.269531 3.378906 -0.253906 3.359375 -0.234375 C 3.335938 -0.222656 3.285156 -0.195312 3.203125 -0.15625 C 3.128906 -0.113281 3.046875 -0.078125 2.953125 -0.046875 C 2.867188 -0.015625 2.753906 0.0078125 2.609375 0.03125 C 2.460938 0.0507812 2.316406 0.0625 2.171875 0.0625 C 1.816406 0.0625 1.476562 -0.0195312 1.15625 -0.1875 C 0.84375 -0.363281 0.585938 -0.601562 0.390625 -0.90625 C 0.203125 -1.207031 0.109375 -1.535156 0.109375 -1.890625 C 0.109375 -2.160156 0.164062 -2.414062 0.28125 -2.65625 C 0.394531 -2.90625 0.546875 -3.117188 0.734375 -3.296875 C 0.921875 -3.472656 1.140625 -3.613281 1.390625 -3.71875 C 1.640625 -3.820312 1.898438 -3.875 2.171875 -3.875 C 2.410156 -3.875 2.632812 -3.84375 2.84375 -3.78125 C 3.050781 -3.726562 3.195312 -3.671875 3.28125 -3.609375 L 3.421875 -3.515625 L 3.046875 -2.78125 C 3.023438 -2.800781 2.992188 -2.820312 2.953125 -2.84375 C 2.910156 -2.875 2.820312 -2.910156 2.6875 -2.953125 C 2.5625 -2.992188 2.429688 -3.015625 2.296875 -3.015625 C 2.085938 -3.015625 1.898438 -2.976562 1.734375 -2.90625 C 1.566406 -2.84375 1.4375 -2.753906 1.34375 -2.640625 C 1.25 -2.535156 1.175781 -2.421875 1.125 -2.296875 C 1.070312 -2.171875 1.046875 -2.039062 1.046875 -1.90625 C 1.046875 -1.613281 1.15625 -1.351562 1.375 -1.125 C 1.59375 -0.894531 1.898438 -0.78125 2.296875 -0.78125 Z M 2.296875 -0.78125 "/></g></g></g><g fill="#00131e" fill-opacity="1"><g transform="translate(65.631817, 32.910692)"><g><path d="M 0.109375 -1.90625 C 0.109375 -2.457031 0.296875 -2.921875 0.671875 -3.296875 C 1.046875 -3.679688 1.5 -3.875 2.03125 -3.875 C 2.5625 -3.875 3.007812 -3.679688 3.375 -3.296875 C 3.75 -2.921875 3.9375 -2.457031 3.9375 -1.90625 C 3.9375 -1.34375 3.753906 -0.875 3.390625 -0.5 C 3.023438 -0.125 2.570312 0.0625 2.03125 0.0625 C 1.46875 0.0625 1.003906 -0.125 0.640625 -0.5 C 0.285156 -0.875 0.109375 -1.34375 0.109375 -1.90625 Z M 1.046875 -1.90625 C 1.046875 -1.707031 1.070312 -1.523438 1.125 -1.359375 C 1.1875 -1.191406 1.296875 -1.050781 1.453125 -0.9375 C 1.609375 -0.820312 1.800781 -0.765625 2.03125 -0.765625 C 2.34375 -0.765625 2.582031 -0.875 2.75 -1.09375 C 2.914062 -1.320312 3 -1.59375 3 -1.90625 C 3 -2.21875 2.914062 -2.484375 2.75 -2.703125 C 2.582031 -2.921875 2.34375 -3.03125 2.03125 -3.03125 C 1.707031 -3.03125 1.460938 -2.921875 1.296875 -2.703125 C 1.128906 -2.484375 1.046875 -2.21875 1.046875 -1.90625 Z M 1.046875 -1.90625 "/></g></g></g><g fill="#00131e" fill-opacity="1"><g transform="translate(70.324968, 32.910692)"><g><path d="M 1.140625 -2.359375 L 1.140625 0 L 0.28125 0 L 0.28125 -3.796875 L 1.140625 -3.796875 L 2.65625 -1.4375 L 2.671875 -1.4375 L 2.671875 -3.796875 L 3.53125 -3.796875 L 3.53125 0 L 2.671875 0 L 1.15625 -2.359375 Z M 1.140625 -2.359375 "/></g></g></g><g fill="#00131e" fill-opacity="1"><g transform="translate(74.782766, 32.910692)"><g><path d="M 0.28125 -3.796875 L 1.375 -3.796875 C 1.90625 -3.796875 2.359375 -3.613281 2.734375 -3.25 C 3.109375 -2.894531 3.296875 -2.445312 3.296875 -1.90625 C 3.296875 -1.351562 3.109375 -0.894531 2.734375 -0.53125 C 2.359375 -0.175781 1.90625 0 1.375 0 L 0.28125 0 Z M 1.140625 -0.78125 L 1.28125 -0.78125 C 1.59375 -0.78125 1.847656 -0.882812 2.046875 -1.09375 C 2.253906 -1.3125 2.359375 -1.582031 2.359375 -1.90625 C 2.359375 -2.226562 2.253906 -2.492188 2.046875 -2.703125 C 1.847656 -2.921875 1.59375 -3.03125 1.28125 -3.03125 L 1.140625 -3.03125 Z M 1.140625 -0.78125 "/></g></g></g><g fill="#00131e" fill-opacity="1"><g transform="translate(78.834473, 32.910692)"><g/></g></g><g fill="#00131e" fill-opacity="1"><g transform="translate(80.740339, 32.910692)"><g><path d="M 2.296875 -0.78125 C 2.429688 -0.78125 2.5625 -0.800781 2.6875 -0.84375 C 2.8125 -0.882812 2.898438 -0.921875 2.953125 -0.953125 L 3.046875 -1.015625 L 3.421875 -0.28125 C 3.398438 -0.269531 3.378906 -0.253906 3.359375 -0.234375 C 3.335938 -0.222656 3.285156 -0.195312 3.203125 -0.15625 C 3.128906 -0.113281 3.046875 -0.078125 2.953125 -0.046875 C 2.867188 -0.015625 2.753906 0.0078125 2.609375 0.03125 C 2.460938 0.0507812 2.316406 0.0625 2.171875 0.0625 C 1.816406 0.0625 1.476562 -0.0195312 1.15625 -0.1875 C 0.84375 -0.363281 0.585938 -0.601562 0.390625 -0.90625 C 0.203125 -1.207031 0.109375 -1.535156 0.109375 -1.890625 C 0.109375 -2.160156 0.164062 -2.414062 0.28125 -2.65625 C 0.394531 -2.90625 0.546875 -3.117188 0.734375 -3.296875 C 0.921875 -3.472656 1.140625 -3.613281 1.390625 -3.71875 C 1.640625 -3.820312 1.898438 -3.875 2.171875 -3.875 C 2.410156 -3.875 2.632812 -3.84375 2.84375 -3.78125 C 3.050781 -3.726562 3.195312 -3.671875 3.28125 -3.609375 L 3.421875 -3.515625 L 3.046875 -2.78125 C 3.023438 -2.800781 2.992188 -2.820312 2.953125 -2.84375 C 2.910156 -2.875 2.820312 -2.910156 2.6875 -2.953125 C 2.5625 -2.992188 2.429688 -3.015625 2.296875 -3.015625 C 2.085938 -3.015625 1.898438 -2.976562 1.734375 -2.90625 C 1.566406 -2.84375 1.4375 -2.753906 1.34375 -2.640625 C 1.25 -2.535156 1.175781 -2.421875 1.125 -2.296875 C 1.070312 -2.171875 1.046875 -2.039062 1.046875 -1.90625 C 1.046875 -1.613281 1.15625 -1.351562 1.375 -1.125 C 1.59375 -0.894531 1.898438 -0.78125 2.296875 -0.78125 Z M 2.296875 -0.78125 "/></g></g></g><g fill="#00131e" fill-opacity="1"><g transform="translate(84.861263, 32.910692)"><g><path d="M 1.140625 -1.53125 L 1.140625 0 L 0.28125 0 L 0.28125 -3.796875 L 1.140625 -3.796875 L 1.140625 -2.28125 L 2.375 -2.28125 L 2.375 -3.796875 L 3.234375 -3.796875 L 3.234375 0 L 2.375 0 L 2.375 -1.53125 Z M 1.140625 -1.53125 "/></g></g></g><g fill="#00131e" fill-opacity="1"><g transform="translate(89.02372, 32.910692)"><g><path d="M 2.203125 -3.796875 L 3.75 0 L 2.8125 0 L 2.53125 -0.765625 L 1.078125 -0.765625 L 0.796875 0 L -0.125 0 L 1.40625 -3.796875 Z M 2.234375 -1.515625 L 1.8125 -2.625 L 1.796875 -2.625 L 1.375 -1.515625 Z M 2.234375 -1.515625 "/></g></g></g><g fill="#00131e" fill-opacity="1"><g transform="translate(93.287702, 32.910692)"><g><path d="M 1.140625 -2.359375 L 1.140625 0 L 0.28125 0 L 0.28125 -3.796875 L 1.140625 -3.796875 L 2.65625 -1.4375 L 2.671875 -1.4375 L 2.671875 -3.796875 L 3.53125 -3.796875 L 3.53125 0 L 2.671875 0 L 1.15625 -2.359375 Z M 1.140625 -2.359375 "/></g></g></g><g fill="#00131e" fill-opacity="1"><g transform="translate(97.7455, 32.910692)"><g><path d="M 2.296875 -0.78125 C 2.429688 -0.78125 2.5625 -0.800781 2.6875 -0.84375 C 2.8125 -0.882812 2.898438 -0.921875 2.953125 -0.953125 L 3.046875 -1.015625 L 3.421875 -0.28125 C 3.398438 -0.269531 3.378906 -0.253906 3.359375 -0.234375 C 3.335938 -0.222656 3.285156 -0.195312 3.203125 -0.15625 C 3.128906 -0.113281 3.046875 -0.078125 2.953125 -0.046875 C 2.867188 -0.015625 2.753906 0.0078125 2.609375 0.03125 C 2.460938 0.0507812 2.316406 0.0625 2.171875 0.0625 C 1.816406 0.0625 1.476562 -0.0195312 1.15625 -0.1875 C 0.84375 -0.363281 0.585938 -0.601562 0.390625 -0.90625 C 0.203125 -1.207031 0.109375 -1.535156 0.109375 -1.890625 C 0.109375 -2.160156 0.164062 -2.414062 0.28125 -2.65625 C 0.394531 -2.90625 0.546875 -3.117188 0.734375 -3.296875 C 0.921875 -3.472656 1.140625 -3.613281 1.390625 -3.71875 C 1.640625 -3.820312 1.898438 -3.875 2.171875 -3.875 C 2.410156 -3.875 2.632812 -3.84375 2.84375 -3.78125 C 3.050781 -3.726562 3.195312 -3.671875 3.28125 -3.609375 L 3.421875 -3.515625 L 3.046875 -2.78125 C 3.023438 -2.800781 2.992188 -2.820312 2.953125 -2.84375 C 2.910156 -2.875 2.820312 -2.910156 2.6875 -2.953125 C 2.5625 -2.992188 2.429688 -3.015625 2.296875 -3.015625 C 2.085938 -3.015625 1.898438 -2.976562 1.734375 -2.90625 C 1.566406 -2.84375 1.4375 -2.753906 1.34375 -2.640625 C 1.25 -2.535156 1.175781 -2.421875 1.125 -2.296875 C 1.070312 -2.171875 1.046875 -2.039062 1.046875 -1.90625 C 1.046875 -1.613281 1.15625 -1.351562 1.375 -1.125 C 1.59375 -0.894531 1.898438 -0.78125 2.296875 -0.78125 Z M 2.296875 -0.78125 "/></g></g></g><g fill="#00131e" fill-opacity="1"><g transform="translate(101.866424, 32.910692)"><g><path d="M 2.453125 -3.796875 L 2.453125 -3.046875 L 1.140625 -3.046875 L 1.140625 -2.28125 L 2.390625 -2.28125 L 2.390625 -1.53125 L 1.140625 -1.53125 L 1.140625 -0.765625 L 2.453125 -0.765625 L 2.453125 0 L 0.28125 0 L 0.28125 -3.796875 Z M 2.453125 -3.796875 "/></g></g></g><g clip-path="url(#0214ea21a8)"><path fill="#000000" d="M 36.6875 19.605469 C 35.402344 19.449219 34.175781 20.164062 33.675781 21.355469 C 33.179688 22.542969 33.535156 23.917969 34.546875 24.71875 C 34.132812 23.757812 34.128906 22.671875 34.53125 21.710938 C 34.933594 20.746094 35.714844 19.984375 36.6875 19.605469 Z M 47.828125 5.226562 C 49.796875 11.332031 47.003906 16.316406 39.441406 20.183594 C 44.695312 16.203125 47.492188 11.21875 47.828125 5.226562 Z M 17.1875 5.226562 C 15.214844 11.332031 18.011719 16.316406 25.570312 20.183594 C 20.316406 16.203125 17.523438 11.21875 17.1875 5.226562 Z M 13.621094 8.359375 C 13.378906 14.183594 17.164062 19.289062 24.96875 23.667969 C 29.347656 26.535156 32.027344 30 29.320312 35.386719 C 28.121094 37.769531 25.933594 39.503906 23.335938 40.128906 C 26.035156 39.882812 28.507812 38.519531 30.148438 36.367188 C 34.898438 30.140625 30.972656 25.277344 25.308594 21.941406 C 18.496094 17.691406 14.601562 13.164062 13.621094 8.359375 Z M 24.945312 42.921875 C 27.699219 41.835938 29.960938 39.664062 31.117188 36.8125 C 29.433594 39.234375 26.886719 40.84375 24.078125 41.371094 C 24.320312 41.921875 24.609375 42.441406 24.945312 42.921875 Z M 32.910156 37.082031 C 33.039062 40.378906 33.933594 43.582031 35.511719 46.449219 C 34.6875 46.75 33.8125 46.941406 32.910156 47.007812 Z M 33.488281 36.777344 C 34.195312 39.980469 36.3125 42.621094 39.160156 44.042969 C 38.496094 44.75 37.722656 45.347656 36.878906 45.820312 C 34.796875 43.289062 33.585938 40.117188 33.488281 36.777344 Z M 40.070312 42.921875 C 37.316406 41.835938 35.050781 39.664062 33.898438 36.8125 C 35.578125 39.234375 38.128906 40.84375 40.9375 41.375 C 40.695312 41.921875 40.402344 42.441406 40.070312 42.921875 Z M 32.101562 37.085938 C 31.976562 40.378906 31.078125 43.582031 29.503906 46.449219 C 30.328125 46.75 31.199219 46.941406 32.101562 47.007812 Z M 31.523438 36.777344 C 30.820312 39.980469 28.703125 42.621094 25.855469 44.042969 C 26.519531 44.75 27.289062 45.347656 28.136719 45.820312 C 30.21875 43.289062 31.429688 40.117188 31.523438 36.777344 Z M 51.394531 8.359375 C 51.632812 14.183594 47.851562 19.289062 40.046875 23.667969 C 35.667969 26.535156 32.984375 30 35.695312 35.386719 C 36.890625 37.769531 39.078125 39.503906 41.675781 40.128906 C 38.976562 39.886719 36.507812 38.519531 34.863281 36.367188 C 30.113281 30.140625 34.039062 25.277344 39.707031 21.941406 C 46.519531 17.691406 50.414062 13.164062 51.394531 8.359375 Z M 10.292969 10.257812 C 9.667969 16.636719 13.460938 20.914062 21.671875 23.09375 C 15.691406 20.320312 11.898438 16.039062 10.292969 10.257812 Z M 17.457031 34.585938 C 21.460938 36.066406 25.957031 34.566406 28.257812 30.980469 C 24.769531 33.195312 21.171875 34.398438 17.457031 34.585938 Z M 28.652344 32.847656 C 28.84375 35.085938 27.558594 37.1875 25.480469 38.046875 C 23.402344 38.90625 21 38.324219 19.550781 36.609375 C 21.226562 37.550781 23.242188 37.671875 25.019531 36.941406 C 26.796875 36.207031 28.136719 34.699219 28.652344 32.847656 Z M 15.644531 31.984375 C 17.726562 33.464844 20.5625 33.296875 22.453125 31.578125 C 20.09375 32.316406 17.820312 32.453125 15.644531 31.984375 Z M 29.589844 30.171875 C 26.101562 26.160156 17.96875 30.714844 12.5 28.074219 C 16.378906 34.578125 23.722656 27.964844 29.589844 30.171875 Z M 8.628906 21.601562 C 9.953125 26.171875 14.359375 28.011719 21.84375 27.125 C 15.058594 26.542969 10.652344 24.699219 8.628906 21.601562 Z M 8.933594 17.539062 C 12.125 23.207031 25.203125 23.789062 28.46875 28.039062 C 22.308594 25.710938 9.867188 24.730469 8.933594 17.539062 Z M 32.933594 19.773438 C 34.957031 18.449219 36.652344 18.039062 38.011719 18.554688 C 36.957031 17.242188 35.730469 17 34.328125 17.828125 C 33.488281 17.394531 32.78125 17.394531 32.203125 17.828125 C 31.441406 18.121094 30.582031 17.960938 29.972656 17.417969 C 29.367188 16.875 29.121094 16.035156 29.332031 15.25 C 28.671875 16.582031 29.074219 18.195312 30.285156 19.0625 C 29.773438 19.371094 29.117188 19.296875 28.6875 18.886719 C 28.257812 18.472656 28.160156 17.820312 28.449219 17.300781 C 27.785156 18.109375 27.625 19.222656 28.035156 20.183594 C 28.445312 21.148438 29.355469 21.804688 30.402344 21.890625 C 30.003906 22.992188 30.175781 24.222656 30.863281 25.175781 C 30.75 23.492188 31.195312 21.820312 32.136719 20.417969 C 31.25 20.839844 30.195312 20.703125 29.453125 20.0625 C 30.308594 20 31.257812 19.59375 32.304688 18.84375 C 33.652344 18.035156 33.863281 18.34375 32.933594 19.773438 Z M 47.558594 34.585938 C 43.554688 36.066406 39.058594 34.566406 36.757812 30.980469 C 40.242188 33.195312 43.84375 34.398438 47.558594 34.585938 Z M 36.359375 32.847656 C 36.171875 35.085938 37.453125 37.1875 39.535156 38.046875 C 41.613281 38.90625 44.011719 38.324219 45.464844 36.609375 C 43.789062 37.550781 41.773438 37.671875 39.992188 36.941406 C 38.214844 36.207031 36.875 34.699219 36.359375 32.847656 Z M 49.371094 31.984375 C 47.289062 33.464844 44.453125 33.296875 42.558594 31.578125 C 44.921875 32.316406 47.191406 32.453125 49.371094 31.984375 Z M 35.425781 30.171875 C 38.914062 26.160156 47.046875 30.714844 52.511719 28.074219 C 48.636719 34.578125 41.292969 27.964844 35.425781 30.171875 Z M 56.386719 21.601562 C 55.058594 26.171875 50.65625 28.011719 43.171875 27.125 C 49.957031 26.542969 54.363281 24.699219 56.386719 21.601562 Z M 56.082031 17.539062 C 52.890625 23.207031 39.8125 23.789062 36.546875 28.039062 C 42.703125 25.710938 55.144531 24.730469 56.082031 17.539062 Z M 54.722656 10.257812 C 55.34375 16.636719 51.550781 20.914062 43.339844 23.09375 C 49.324219 20.320312 53.117188 16.039062 54.722656 10.257812 Z M 54.722656 10.257812 " fill-opacity="1" fill-rule="evenodd"/></g><g fill="#000000" fill-opacity="1"><g transform="translate(70.480196, 37.773778)"><g><path d="M 0.15625 -2.234375 L 0.96875 -2.234375 C 1.195312 -2.234375 1.378906 -2.171875 1.515625 -2.046875 C 1.660156 -1.929688 1.734375 -1.757812 1.734375 -1.53125 C 1.734375 -1.3125 1.660156 -1.140625 1.515625 -1.015625 C 1.378906 -0.890625 1.195312 -0.828125 0.96875 -0.828125 L 0.671875 -0.828125 L 0.671875 0 L 0.15625 0 Z M 0.671875 -1.234375 L 0.8125 -1.234375 C 0.925781 -1.234375 1.019531 -1.253906 1.09375 -1.296875 C 1.164062 -1.347656 1.203125 -1.425781 1.203125 -1.53125 C 1.203125 -1.632812 1.164062 -1.707031 1.09375 -1.75 C 1.019531 -1.800781 0.925781 -1.828125 0.8125 -1.828125 L 0.671875 -1.828125 Z M 0.671875 -1.234375 "/></g></g></g><g fill="#000000" fill-opacity="1"><g transform="translate(72.417097, 37.773778)"><g><path d="M 0.15625 0 L 0.15625 -1.390625 L 0.640625 -1.390625 L 0.640625 -1.1875 C 0.648438 -1.195312 0.65625 -1.207031 0.65625 -1.21875 C 0.664062 -1.226562 0.679688 -1.242188 0.703125 -1.265625 C 0.734375 -1.296875 0.765625 -1.320312 0.796875 -1.34375 C 0.828125 -1.363281 0.867188 -1.378906 0.921875 -1.390625 C 0.972656 -1.410156 1.023438 -1.421875 1.078125 -1.421875 C 1.128906 -1.421875 1.175781 -1.414062 1.21875 -1.40625 C 1.269531 -1.394531 1.304688 -1.378906 1.328125 -1.359375 L 1.375 -1.34375 L 1.171875 -0.9375 C 1.109375 -0.988281 1.023438 -1.015625 0.921875 -1.015625 C 0.867188 -1.015625 0.820312 -1 0.78125 -0.96875 C 0.738281 -0.945312 0.707031 -0.914062 0.6875 -0.875 C 0.664062 -0.84375 0.648438 -0.8125 0.640625 -0.78125 C 0.640625 -0.757812 0.640625 -0.742188 0.640625 -0.734375 L 0.640625 0 Z M 0.15625 0 "/></g></g></g><g fill="#000000" fill-opacity="1"><g transform="translate(73.89953, 37.773778)"><g><path d="M 0.296875 -0.15625 C 0.140625 -0.300781 0.0625 -0.476562 0.0625 -0.6875 C 0.0625 -0.90625 0.140625 -1.082031 0.296875 -1.21875 C 0.460938 -1.351562 0.660156 -1.421875 0.890625 -1.421875 C 1.128906 -1.421875 1.328125 -1.351562 1.484375 -1.21875 C 1.640625 -1.082031 1.71875 -0.90625 1.71875 -0.6875 C 1.71875 -0.476562 1.640625 -0.300781 1.484375 -0.15625 C 1.328125 -0.0195312 1.128906 0.046875 0.890625 0.046875 C 0.648438 0.046875 0.453125 -0.0195312 0.296875 -0.15625 Z M 0.65625 -0.921875 C 0.601562 -0.859375 0.578125 -0.78125 0.578125 -0.6875 C 0.578125 -0.59375 0.601562 -0.515625 0.65625 -0.453125 C 0.71875 -0.398438 0.796875 -0.375 0.890625 -0.375 C 0.984375 -0.375 1.0625 -0.398438 1.125 -0.453125 C 1.1875 -0.515625 1.21875 -0.59375 1.21875 -0.6875 C 1.21875 -0.78125 1.1875 -0.859375 1.125 -0.921875 C 1.0625 -0.984375 0.984375 -1.015625 0.890625 -1.015625 C 0.796875 -1.015625 0.71875 -0.984375 0.65625 -0.921875 Z M 0.65625 -0.921875 "/></g></g></g><g fill="#000000" fill-opacity="1"><g transform="translate(75.822906, 37.773778)"><g><path d="M 0.25 -0.171875 C 0.125 -0.316406 0.0625 -0.488281 0.0625 -0.6875 C 0.0625 -0.894531 0.125 -1.066406 0.25 -1.203125 C 0.382812 -1.347656 0.550781 -1.421875 0.75 -1.421875 C 0.9375 -1.421875 1.085938 -1.363281 1.203125 -1.25 L 1.203125 -2.328125 L 1.6875 -2.328125 L 1.6875 0 L 1.21875 0 L 1.21875 -0.15625 L 1.203125 -0.15625 C 1.085938 -0.0195312 0.9375 0.046875 0.75 0.046875 C 0.550781 0.046875 0.382812 -0.0234375 0.25 -0.171875 Z M 0.65625 -0.921875 C 0.601562 -0.859375 0.578125 -0.78125 0.578125 -0.6875 C 0.578125 -0.59375 0.601562 -0.515625 0.65625 -0.453125 C 0.71875 -0.398438 0.796875 -0.375 0.890625 -0.375 C 0.984375 -0.375 1.0625 -0.398438 1.125 -0.453125 C 1.1875 -0.515625 1.21875 -0.59375 1.21875 -0.6875 C 1.21875 -0.78125 1.1875 -0.859375 1.125 -0.921875 C 1.0625 -0.984375 0.984375 -1.015625 0.890625 -1.015625 C 0.796875 -1.015625 0.71875 -0.984375 0.65625 -0.921875 Z M 0.65625 -0.921875 "/></g></g></g><g fill="#000000" fill-opacity="1"><g transform="translate(77.805797, 37.773778)"><g><path d="M 0.609375 -1.390625 L 0.609375 -0.734375 C 0.609375 -0.585938 0.628906 -0.484375 0.671875 -0.421875 C 0.710938 -0.367188 0.78125 -0.34375 0.875 -0.34375 C 0.976562 -0.34375 1.050781 -0.367188 1.09375 -0.421875 C 1.132812 -0.484375 1.15625 -0.585938 1.15625 -0.734375 L 1.15625 -1.390625 L 1.640625 -1.390625 L 1.640625 -0.609375 C 1.640625 -0.378906 1.578125 -0.210938 1.453125 -0.109375 C 1.335938 -0.00390625 1.148438 0.046875 0.890625 0.046875 C 0.628906 0.046875 0.4375 -0.00390625 0.3125 -0.109375 C 0.195312 -0.210938 0.140625 -0.378906 0.140625 -0.609375 L 0.140625 -1.390625 Z M 0.609375 -1.390625 "/></g></g></g><g fill="#000000" fill-opacity="1"><g transform="translate(79.715647, 37.773778)"><g><path d="M 0.90625 -1.03125 C 0.8125 -1.03125 0.734375 -0.992188 0.671875 -0.921875 C 0.609375 -0.859375 0.578125 -0.78125 0.578125 -0.6875 C 0.578125 -0.59375 0.609375 -0.507812 0.671875 -0.4375 C 0.734375 -0.375 0.8125 -0.34375 0.90625 -0.34375 C 0.945312 -0.34375 0.984375 -0.347656 1.015625 -0.359375 C 1.054688 -0.378906 1.085938 -0.394531 1.109375 -0.40625 L 1.125 -0.421875 L 1.296875 -0.078125 C 1.285156 -0.0664062 1.265625 -0.0546875 1.234375 -0.046875 C 1.210938 -0.0351562 1.160156 -0.0195312 1.078125 0 C 1.003906 0.03125 0.921875 0.046875 0.828125 0.046875 C 0.628906 0.046875 0.453125 -0.0234375 0.296875 -0.171875 C 0.140625 -0.316406 0.0625 -0.488281 0.0625 -0.6875 C 0.0625 -0.882812 0.140625 -1.054688 0.296875 -1.203125 C 0.453125 -1.347656 0.628906 -1.421875 0.828125 -1.421875 C 0.921875 -1.421875 1.003906 -1.410156 1.078125 -1.390625 C 1.160156 -1.367188 1.21875 -1.347656 1.25 -1.328125 L 1.296875 -1.296875 L 1.125 -0.96875 C 1.070312 -1.007812 1 -1.03125 0.90625 -1.03125 Z M 0.90625 -1.03125 "/></g></g></g><g fill="#000000" fill-opacity="1"><g transform="translate(81.179144, 37.773778)"><g><path d="M 0.25 -1.390625 L 0.25 -1.90625 L 0.71875 -1.90625 L 0.71875 -1.390625 L 1.015625 -1.390625 L 1.015625 -1.015625 L 0.71875 -1.015625 L 0.71875 -0.578125 C 0.71875 -0.453125 0.753906 -0.390625 0.828125 -0.390625 C 0.847656 -0.390625 0.867188 -0.390625 0.890625 -0.390625 C 0.910156 -0.398438 0.925781 -0.410156 0.9375 -0.421875 L 0.953125 -0.4375 L 1.0625 -0.046875 C 0.957031 0.015625 0.84375 0.046875 0.71875 0.046875 C 0.625 0.046875 0.546875 0.03125 0.484375 0 C 0.421875 -0.03125 0.367188 -0.0703125 0.328125 -0.125 C 0.296875 -0.1875 0.273438 -0.242188 0.265625 -0.296875 C 0.253906 -0.359375 0.25 -0.421875 0.25 -0.484375 L 0.25 -1.015625 L 0.046875 -1.015625 L 0.046875 -1.390625 Z M 0.25 -1.390625 "/></g></g></g><g fill="#000000" fill-opacity="1"><g transform="translate(82.382945, 37.773778)"><g><path d="M 0.203125 -2.15625 C 0.265625 -2.21875 0.332031 -2.25 0.40625 -2.25 C 0.488281 -2.25 0.554688 -2.21875 0.609375 -2.15625 C 0.660156 -2.101562 0.6875 -2.035156 0.6875 -1.953125 C 0.6875 -1.878906 0.660156 -1.8125 0.609375 -1.75 C 0.554688 -1.695312 0.488281 -1.671875 0.40625 -1.671875 C 0.332031 -1.671875 0.265625 -1.695312 0.203125 -1.75 C 0.148438 -1.8125 0.125 -1.878906 0.125 -1.953125 C 0.125 -2.035156 0.148438 -2.101562 0.203125 -2.15625 Z M 0.15625 -1.390625 L 0.15625 0 L 0.640625 0 L 0.640625 -1.390625 Z M 0.15625 -1.390625 "/></g></g></g><g fill="#000000" fill-opacity="1"><g transform="translate(83.335163, 37.773778)"><g><path d="M 0.296875 -0.15625 C 0.140625 -0.300781 0.0625 -0.476562 0.0625 -0.6875 C 0.0625 -0.90625 0.140625 -1.082031 0.296875 -1.21875 C 0.460938 -1.351562 0.660156 -1.421875 0.890625 -1.421875 C 1.128906 -1.421875 1.328125 -1.351562 1.484375 -1.21875 C 1.640625 -1.082031 1.71875 -0.90625 1.71875 -0.6875 C 1.71875 -0.476562 1.640625 -0.300781 1.484375 -0.15625 C 1.328125 -0.0195312 1.128906 0.046875 0.890625 0.046875 C 0.648438 0.046875 0.453125 -0.0195312 0.296875 -0.15625 Z M 0.65625 -0.921875 C 0.601562 -0.859375 0.578125 -0.78125 0.578125 -0.6875 C 0.578125 -0.59375 0.601562 -0.515625 0.65625 -0.453125 C 0.71875 -0.398438 0.796875 -0.375 0.890625 -0.375 C 0.984375 -0.375 1.0625 -0.398438 1.125 -0.453125 C 1.1875 -0.515625 1.21875 -0.59375 1.21875 -0.6875 C 1.21875 -0.78125 1.1875 -0.859375 1.125 -0.921875 C 1.0625 -0.984375 0.984375 -1.015625 0.890625 -1.015625 C 0.796875 -1.015625 0.71875 -0.984375 0.65625 -0.921875 Z M 0.65625 -0.921875 "/></g></g></g><g fill="#000000" fill-opacity="1"><g transform="translate(85.258539, 37.773778)"><g><path d="M 0.15625 0 L 0.15625 -1.390625 L 0.640625 -1.390625 L 0.640625 -1.234375 C 0.765625 -1.359375 0.898438 -1.421875 1.046875 -1.421875 C 1.109375 -1.421875 1.171875 -1.410156 1.234375 -1.390625 C 1.304688 -1.378906 1.375 -1.351562 1.4375 -1.3125 C 1.5 -1.28125 1.550781 -1.226562 1.59375 -1.15625 C 1.632812 -1.082031 1.65625 -1 1.65625 -0.90625 L 1.65625 0 L 1.171875 0 L 1.171875 -0.78125 C 1.171875 -0.851562 1.144531 -0.914062 1.09375 -0.96875 C 1.050781 -1.019531 0.992188 -1.046875 0.921875 -1.046875 C 0.847656 -1.046875 0.78125 -1.019531 0.71875 -0.96875 C 0.664062 -0.914062 0.640625 -0.851562 0.640625 -0.78125 L 0.640625 0 Z M 0.15625 0 "/></g></g></g><g fill="#000000" fill-opacity="1"><g transform="translate(87.181914, 37.773778)"><g><path d="M 0.765625 -1.421875 C 0.847656 -1.421875 0.925781 -1.410156 1 -1.390625 C 1.070312 -1.378906 1.128906 -1.363281 1.171875 -1.34375 L 1.234375 -1.3125 L 1.078125 -1 C 0.960938 -1.0625 0.859375 -1.09375 0.765625 -1.09375 C 0.710938 -1.09375 0.671875 -1.085938 0.640625 -1.078125 C 0.617188 -1.066406 0.609375 -1.046875 0.609375 -1.015625 C 0.609375 -1.003906 0.609375 -0.992188 0.609375 -0.984375 C 0.617188 -0.972656 0.625 -0.960938 0.625 -0.953125 C 0.632812 -0.953125 0.640625 -0.945312 0.640625 -0.9375 C 0.648438 -0.9375 0.660156 -0.929688 0.671875 -0.921875 C 0.679688 -0.921875 0.6875 -0.921875 0.6875 -0.921875 C 0.695312 -0.921875 0.707031 -0.914062 0.71875 -0.90625 C 0.738281 -0.90625 0.75 -0.898438 0.75 -0.890625 C 0.757812 -0.890625 0.769531 -0.882812 0.78125 -0.875 C 0.800781 -0.875 0.816406 -0.875 0.828125 -0.875 C 0.890625 -0.851562 0.941406 -0.832031 0.984375 -0.8125 C 1.023438 -0.800781 1.066406 -0.773438 1.109375 -0.734375 C 1.148438 -0.703125 1.179688 -0.660156 1.203125 -0.609375 C 1.234375 -0.554688 1.25 -0.5 1.25 -0.4375 C 1.25 -0.113281 1.03125 0.046875 0.59375 0.046875 C 0.5 0.046875 0.40625 0.03125 0.3125 0 C 0.226562 -0.03125 0.164062 -0.0625 0.125 -0.09375 L 0.0625 -0.140625 L 0.25 -0.46875 C 0.269531 -0.457031 0.289062 -0.441406 0.3125 -0.421875 C 0.332031 -0.410156 0.375 -0.390625 0.4375 -0.359375 C 0.5 -0.328125 0.550781 -0.3125 0.59375 -0.3125 C 0.695312 -0.3125 0.75 -0.34375 0.75 -0.40625 C 0.75 -0.4375 0.734375 -0.460938 0.703125 -0.484375 C 0.679688 -0.503906 0.640625 -0.523438 0.578125 -0.546875 C 0.515625 -0.566406 0.46875 -0.585938 0.4375 -0.609375 C 0.351562 -0.648438 0.285156 -0.695312 0.234375 -0.75 C 0.179688 -0.8125 0.15625 -0.890625 0.15625 -0.984375 C 0.15625 -1.117188 0.207031 -1.222656 0.3125 -1.296875 C 0.425781 -1.378906 0.578125 -1.421875 0.765625 -1.421875 Z M 0.765625 -1.421875 "/></g></g></g></svg>