<svg xmlns="http://www.w3.org/2000/svg" xmlns:xlink="http://www.w3.org/1999/xlink" width="512" zoomAndPan="magnify" viewBox="0 0 384 383.999986" height="512" preserveAspectRatio="xMidYMid meet" version="1.0"><defs><clipPath id="ac585c099a"><path d="M 25.25 45.675781 L 359 45.675781 L 359 338.175781 L 25.25 338.175781 Z M 25.25 45.675781 " clip-rule="nonzero"/></clipPath></defs><g clip-path="url(#ac585c099a)"><path fill="#000000" d="M 221.332031 146.324219 C 212.363281 145.242188 203.769531 150.246094 200.292969 158.574219 C 196.808594 166.898438 199.300781 176.523438 206.378906 182.128906 C 203.488281 175.410156 203.449219 167.8125 206.269531 161.066406 C 209.085938 154.316406 214.527344 149 221.332031 146.324219 Z M 299.191406 45.695312 C 312.949219 88.410156 293.417969 123.308594 240.589844 150.375 C 277.304688 122.527344 296.839844 87.628906 299.191406 45.695312 Z M 85.050781 45.695312 C 71.292969 88.410156 90.824219 123.308594 143.65625 150.375 C 106.941406 122.527344 87.40625 87.628906 85.050781 45.695312 Z M 60.140625 67.609375 C 58.457031 108.386719 84.886719 144.117188 139.4375 174.78125 C 170.035156 194.851562 188.777344 219.109375 169.855469 256.804688 C 161.484375 273.476562 146.1875 285.621094 128.039062 290.011719 C 146.90625 288.289062 164.179688 278.734375 175.640625 263.671875 C 208.839844 220.070312 181.402344 186.046875 141.808594 162.6875 C 94.210938 132.933594 66.988281 101.242188 60.140625 67.609375 Z M 139.28125 309.5625 C 158.515625 301.957031 174.339844 286.757812 182.410156 266.789062 C 170.652344 283.746094 152.847656 294.996094 133.207031 298.710938 C 134.902344 302.546875 136.941406 306.175781 139.28125 309.5625 Z M 194.949219 268.683594 C 195.828125 291.753906 202.097656 314.183594 213.121094 334.234375 C 207.363281 336.351562 201.257812 337.695312 194.949219 338.152344 Z M 198.984375 266.550781 C 203.90625 288.949219 218.714844 307.453125 238.621094 317.398438 C 233.964844 322.335938 228.578125 326.527344 222.664062 329.84375 C 208.125 312.132812 199.652344 289.925781 198.988281 266.550781 Z M 244.964844 309.5625 C 225.730469 301.957031 209.902344 286.757812 201.835938 266.789062 C 213.589844 283.746094 231.398438 294.996094 251.039062 298.710938 C 249.34375 302.550781 247.300781 306.175781 244.964844 309.566406 Z M 189.296875 268.6875 C 188.414062 291.757812 182.148438 314.1875 171.128906 334.234375 C 176.882812 336.355469 182.984375 337.695312 189.296875 338.152344 Z M 185.257812 266.550781 C 180.335938 288.949219 165.527344 307.457031 145.625 317.402344 C 150.28125 322.335938 155.664062 326.53125 161.585938 329.847656 C 176.121094 312.132812 184.59375 289.925781 185.257812 266.550781 Z M 324.101562 67.613281 C 325.789062 108.390625 299.355469 144.117188 244.808594 174.785156 C 214.210938 194.855469 195.46875 219.113281 214.386719 256.808594 C 222.757812 273.480469 238.054688 285.625 256.207031 290.015625 C 237.339844 288.292969 220.066406 278.738281 208.601562 263.675781 C 175.402344 220.074219 202.839844 186.050781 242.4375 162.6875 C 290.035156 132.933594 317.253906 101.246094 324.101562 67.613281 Z M 36.878906 80.894531 C 32.515625 125.554688 59.03125 155.507812 116.40625 170.753906 C 74.605469 151.328125 48.097656 121.371094 36.878906 80.894531 Z M 86.941406 251.210938 C 114.917969 261.574219 146.339844 251.058594 162.414062 225.953125 C 138.058594 241.453125 112.902344 249.875 86.941406 251.210938 Z M 165.195312 239.042969 C 166.523438 254.703125 157.550781 269.414062 143.015625 275.429688 C 128.484375 281.441406 111.71875 277.371094 101.574219 265.363281 C 113.285156 271.960938 127.382812 272.8125 139.800781 267.675781 C 152.222656 262.535156 161.585938 251.980469 165.195312 239.042969 Z M 74.269531 232.996094 C 88.832031 243.347656 108.648438 242.164062 121.867188 230.148438 C 105.363281 235.316406 89.496094 236.265625 74.269531 232.996094 Z M 171.722656 220.308594 C 147.34375 192.226562 90.519531 224.113281 52.308594 205.609375 C 79.40625 251.140625 130.730469 204.847656 171.722656 220.308594 Z M 25.25 160.320312 C 34.511719 192.3125 65.292969 205.195312 117.59375 198.96875 C 70.175781 194.890625 39.386719 182.003906 25.25 160.320312 Z M 27.386719 131.867188 C 49.675781 171.550781 141.078125 175.613281 163.890625 205.367188 C 120.863281 189.078125 33.917969 182.214844 27.386719 131.867188 Z M 195.101562 147.511719 C 209.257812 138.230469 221.085938 135.386719 230.589844 138.980469 C 223.222656 129.804688 214.636719 128.105469 204.835938 133.882812 C 198.988281 130.859375 194.042969 130.859375 190 133.882812 C 184.683594 135.941406 178.65625 134.835938 174.421875 131.03125 C 170.179688 127.222656 168.449219 121.355469 169.9375 115.859375 C 165.316406 125.175781 168.128906 136.46875 176.585938 142.53125 C 173.015625 144.695312 168.433594 144.1875 165.429688 141.296875 C 162.421875 138.402344 161.742188 133.847656 163.765625 130.207031 C 159.117188 135.871094 157.992188 143.648438 160.859375 150.394531 C 163.722656 157.140625 170.105469 161.738281 177.414062 162.332031 C 174.632812 170.058594 175.832031 178.660156 180.621094 185.328125 C 179.839844 173.554688 182.96875 161.84375 189.523438 152.015625 C 183.335938 154.988281 175.96875 154.011719 170.769531 149.527344 C 176.75 149.109375 183.402344 146.265625 190.710938 140.992188 C 200.132812 135.339844 201.597656 137.515625 195.101562 147.511719 Z M 297.304688 251.210938 C 269.328125 261.574219 237.902344 251.058594 221.828125 225.953125 C 246.179688 241.453125 271.339844 249.875 297.304688 251.210938 Z M 219.046875 239.042969 C 217.722656 254.703125 226.691406 269.414062 241.226562 275.429688 C 255.761719 281.441406 272.519531 277.371094 282.664062 265.363281 C 270.957031 271.960938 256.863281 272.8125 244.4375 267.675781 C 232.019531 262.535156 222.65625 251.980469 219.046875 239.042969 Z M 309.972656 232.996094 C 295.414062 243.347656 275.59375 242.164062 262.375 230.148438 C 278.886719 235.316406 294.75 236.265625 309.972656 232.996094 Z M 212.523438 220.308594 C 236.898438 192.226562 293.726562 224.113281 331.933594 205.609375 C 304.835938 251.140625 253.511719 204.847656 212.523438 220.308594 Z M 359 160.320312 C 349.730469 192.3125 318.949219 205.195312 266.648438 198.96875 C 314.070312 194.890625 344.851562 182.003906 359 160.320312 Z M 356.859375 131.867188 C 334.566406 171.550781 243.167969 175.613281 220.355469 205.367188 C 263.378906 189.078125 350.324219 182.214844 356.859375 131.867188 Z M 347.363281 80.894531 C 351.722656 125.554688 325.21875 155.507812 267.832031 170.753906 C 309.636719 151.328125 336.144531 121.371094 347.363281 80.894531 Z M 347.363281 80.894531 " fill-opacity="1" fill-rule="evenodd"/></g></svg>