<svg xmlns="http://www.w3.org/2000/svg" xmlns:xlink="http://www.w3.org/1999/xlink" width="150" zoomAndPan="magnify" viewBox="0 0 112.5 52.499999" height="70" preserveAspectRatio="xMidYMid meet" version="1.0"><defs><g/><clipPath id="0a10de7628"><path d="M 5.507812 5.222656 L 53.265625 5.222656 L 53.265625 47.011719 L 5.507812 47.011719 Z M 5.507812 5.222656 " clip-rule="nonzero"/></clipPath></defs><g clip-path="url(#0a10de7628)"><path fill="#d2ae6d" d="M 33.566406 19.605469 C 32.28125 19.449219 31.050781 20.164062 30.554688 21.355469 C 30.054688 22.542969 30.414062 23.917969 31.425781 24.71875 C 31.011719 23.757812 31.007812 22.671875 31.410156 21.710938 C 31.8125 20.746094 32.59375 19.984375 33.566406 19.605469 Z M 44.707031 5.226562 C 46.675781 11.332031 43.878906 16.316406 36.320312 20.183594 C 41.574219 16.203125 44.371094 11.21875 44.707031 5.226562 Z M 14.0625 5.226562 C 12.09375 11.332031 14.890625 16.316406 22.449219 20.183594 C 17.195312 16.203125 14.402344 11.21875 14.0625 5.226562 Z M 10.5 8.359375 C 10.257812 14.183594 14.039062 19.289062 21.847656 23.667969 C 26.226562 26.535156 28.90625 30 26.199219 35.386719 C 25 37.769531 22.8125 39.503906 20.214844 40.128906 C 22.914062 39.882812 25.386719 38.519531 27.027344 36.367188 C 31.777344 30.140625 27.851562 25.277344 22.1875 21.941406 C 15.375 17.691406 11.480469 13.164062 10.5 8.359375 Z M 21.824219 42.921875 C 24.578125 41.835938 26.839844 39.664062 27.996094 36.8125 C 26.3125 39.234375 23.765625 40.84375 20.953125 41.371094 C 21.199219 41.921875 21.488281 42.441406 21.824219 42.921875 Z M 29.789062 37.082031 C 29.917969 40.378906 30.8125 43.582031 32.390625 46.449219 C 31.566406 46.75 30.691406 46.941406 29.789062 47.007812 Z M 30.367188 36.777344 C 31.070312 39.980469 33.191406 42.621094 36.039062 44.042969 C 35.375 44.75 34.601562 45.347656 33.757812 45.820312 C 31.675781 43.289062 30.464844 40.117188 30.367188 36.777344 Z M 36.945312 42.921875 C 34.195312 41.835938 31.929688 39.664062 30.777344 36.8125 C 32.457031 39.234375 35.003906 40.84375 37.816406 41.375 C 37.574219 41.921875 37.28125 42.441406 36.945312 42.921875 Z M 28.980469 37.085938 C 28.855469 40.378906 27.957031 43.582031 26.382812 46.449219 C 27.203125 46.75 28.078125 46.941406 28.980469 47.007812 Z M 28.402344 36.777344 C 27.699219 39.980469 25.582031 42.621094 22.730469 44.042969 C 23.398438 44.75 24.167969 45.347656 25.015625 45.820312 C 27.097656 43.289062 28.308594 40.117188 28.402344 36.777344 Z M 48.269531 8.359375 C 48.511719 14.183594 44.730469 19.289062 36.925781 23.667969 C 32.546875 26.535156 29.863281 30 32.570312 35.386719 C 33.769531 37.769531 35.957031 39.503906 38.554688 40.128906 C 35.855469 39.886719 33.382812 38.519531 31.742188 36.367188 C 26.992188 30.140625 30.917969 25.277344 36.585938 21.941406 C 43.398438 17.691406 47.292969 13.164062 48.273438 8.359375 Z M 7.171875 10.257812 C 6.546875 16.636719 10.339844 20.914062 18.550781 23.09375 C 12.570312 20.320312 8.777344 16.039062 7.171875 10.257812 Z M 14.335938 34.585938 C 18.339844 36.066406 22.835938 34.566406 25.132812 30.980469 C 21.648438 33.195312 18.050781 34.398438 14.335938 34.585938 Z M 25.53125 32.847656 C 25.722656 35.085938 24.4375 37.1875 22.359375 38.046875 C 20.28125 38.90625 17.878906 38.324219 16.429688 36.609375 C 18.105469 37.550781 20.121094 37.671875 21.898438 36.941406 C 23.675781 36.207031 25.015625 34.699219 25.53125 32.847656 Z M 12.523438 31.984375 C 14.605469 33.464844 17.441406 33.296875 19.332031 31.578125 C 16.96875 32.316406 14.699219 32.453125 12.523438 31.984375 Z M 26.464844 30.171875 C 22.976562 26.160156 14.847656 30.714844 9.378906 28.074219 C 13.257812 34.578125 20.601562 27.964844 26.464844 30.171875 Z M 5.507812 21.601562 C 6.832031 26.171875 11.238281 28.011719 18.722656 27.125 C 11.933594 26.542969 7.53125 24.699219 5.507812 21.601562 Z M 5.8125 17.539062 C 9.003906 23.207031 22.082031 23.789062 25.34375 28.039062 C 19.1875 25.710938 6.746094 24.730469 5.8125 17.539062 Z M 29.8125 19.773438 C 31.835938 18.449219 33.53125 18.039062 34.890625 18.554688 C 33.835938 17.242188 32.605469 17 31.203125 17.828125 C 30.367188 17.394531 29.660156 17.394531 29.082031 17.828125 C 28.320312 18.121094 27.457031 17.960938 26.851562 17.417969 C 26.246094 16.875 26 16.035156 26.210938 15.25 C 25.550781 16.582031 25.953125 18.195312 27.164062 19.0625 C 26.652344 19.371094 25.996094 19.296875 25.566406 18.886719 C 25.136719 18.472656 25.039062 17.820312 25.328125 17.300781 C 24.664062 18.109375 24.5 19.222656 24.910156 20.183594 C 25.320312 21.148438 26.234375 21.804688 27.28125 21.890625 C 26.882812 22.992188 27.054688 24.222656 27.738281 25.175781 C 27.628906 23.492188 28.074219 21.820312 29.011719 20.417969 C 28.128906 20.839844 27.074219 20.703125 26.328125 20.0625 C 27.1875 20 28.136719 19.59375 29.183594 18.84375 C 30.53125 18.035156 30.742188 18.34375 29.8125 19.773438 Z M 44.4375 34.585938 C 40.433594 36.066406 35.9375 34.566406 33.636719 30.980469 C 37.121094 33.195312 40.722656 34.398438 44.4375 34.585938 Z M 33.238281 32.847656 C 33.050781 35.085938 34.332031 37.1875 36.414062 38.046875 C 38.492188 38.90625 40.890625 38.324219 42.34375 36.609375 C 40.667969 37.550781 38.648438 37.671875 36.871094 36.941406 C 35.09375 36.207031 33.753906 34.699219 33.238281 32.847656 Z M 46.25 31.984375 C 44.167969 33.464844 41.332031 33.296875 39.4375 31.578125 C 41.800781 32.316406 44.070312 32.453125 46.25 31.984375 Z M 32.304688 30.171875 C 35.792969 26.160156 43.925781 30.714844 49.390625 28.074219 C 45.515625 34.578125 38.171875 27.964844 32.304688 30.171875 Z M 53.265625 21.601562 C 51.9375 26.171875 47.535156 28.011719 40.050781 27.125 C 46.835938 26.542969 51.242188 24.699219 53.265625 21.601562 Z M 52.960938 17.539062 C 49.769531 23.207031 36.691406 23.789062 33.425781 28.039062 C 39.582031 25.710938 52.023438 24.730469 52.960938 17.539062 Z M 51.601562 10.257812 C 52.222656 16.636719 48.429688 20.914062 40.21875 23.09375 C 46.203125 20.320312 49.996094 16.039062 51.601562 10.257812 Z M 51.601562 10.257812 " fill-opacity="1" fill-rule="evenodd"/></g><g fill="#d2ae6d" fill-opacity="1"><g transform="translate(49.377218, 36.377455)"><g><path d="M 2.1875 -2.828125 L 2.15625 -2.171875 L 2.140625 -2.15625 C 2.023438 -2.320312 1.832031 -2.429688 1.5625 -2.484375 C 1.476562 -2.503906 1.394531 -2.515625 1.3125 -2.515625 C 1.238281 -2.515625 1.175781 -2.503906 1.125 -2.484375 C 1.070312 -2.472656 1.023438 -2.457031 0.984375 -2.4375 C 0.898438 -2.375 0.859375 -2.300781 0.859375 -2.21875 C 0.859375 -2.101562 0.894531 -2.019531 0.96875 -1.96875 C 1.0625 -1.894531 1.210938 -1.84375 1.421875 -1.8125 C 1.628906 -1.789062 1.796875 -1.753906 1.921875 -1.703125 C 2.046875 -1.648438 2.148438 -1.585938 2.234375 -1.515625 C 2.390625 -1.378906 2.46875 -1.1875 2.46875 -0.9375 C 2.46875 -0.601562 2.34375 -0.347656 2.09375 -0.171875 C 1.875 -0.015625 1.601562 0.0625 1.28125 0.0625 C 1.019531 0.0625 0.765625 0.0078125 0.515625 -0.09375 C 0.421875 -0.125 0.34375 -0.160156 0.28125 -0.203125 L 0.3125 -0.953125 L 0.328125 -0.96875 C 0.503906 -0.644531 0.804688 -0.484375 1.234375 -0.484375 C 1.535156 -0.484375 1.738281 -0.554688 1.84375 -0.703125 C 1.875 -0.753906 1.890625 -0.804688 1.890625 -0.859375 C 1.890625 -0.921875 1.878906 -0.972656 1.859375 -1.015625 C 1.835938 -1.054688 1.804688 -1.09375 1.765625 -1.125 C 1.671875 -1.175781 1.519531 -1.210938 1.3125 -1.234375 C 1.113281 -1.253906 0.945312 -1.289062 0.8125 -1.34375 C 0.6875 -1.394531 0.582031 -1.460938 0.5 -1.546875 C 0.363281 -1.691406 0.296875 -1.894531 0.296875 -2.15625 C 0.296875 -2.414062 0.390625 -2.628906 0.578125 -2.796875 C 0.765625 -2.960938 1.019531 -3.046875 1.34375 -3.046875 C 1.664062 -3.046875 1.945312 -2.972656 2.1875 -2.828125 Z M 2.1875 -2.828125 "/></g></g></g><g fill="#d2ae6d" fill-opacity="1"><g transform="translate(52.711078, 36.377455)"><g><path d="M 1.890625 -0.546875 C 1.984375 -0.546875 2.050781 -0.550781 2.09375 -0.5625 L 2.078125 0 L 0.390625 0 L 0.390625 -3.015625 C 0.429688 -3.003906 0.472656 -3 0.515625 -3 L 0.6875 -3 C 0.789062 -3 0.898438 -3 1.015625 -3 C 1.359375 -3 1.703125 -3.003906 2.046875 -3.015625 C 2.023438 -2.878906 2.015625 -2.703125 2.015625 -2.484375 C 2.015625 -2.460938 2.015625 -2.441406 2.015625 -2.421875 C 1.941406 -2.441406 1.832031 -2.453125 1.6875 -2.453125 L 0.96875 -2.453125 L 0.96875 -1.875 L 1.515625 -1.875 C 1.671875 -1.875 1.769531 -1.878906 1.8125 -1.890625 L 1.8125 -1.34375 C 1.738281 -1.34375 1.644531 -1.34375 1.53125 -1.34375 L 0.96875 -1.34375 L 0.96875 -0.546875 Z M 1.890625 -0.546875 "/></g></g></g><g fill="#d2ae6d" fill-opacity="1"><g transform="translate(55.66869, 36.377455)"><g><path d="M 1.734375 -3.046875 C 2.015625 -3.046875 2.253906 -3 2.453125 -2.90625 L 2.453125 -2.21875 L 2.4375 -2.203125 C 2.351562 -2.335938 2.175781 -2.425781 1.90625 -2.46875 C 1.832031 -2.476562 1.734375 -2.484375 1.609375 -2.484375 C 1.484375 -2.484375 1.363281 -2.457031 1.25 -2.40625 C 1.132812 -2.363281 1.039062 -2.300781 0.96875 -2.21875 C 0.820312 -2.0625 0.75 -1.832031 0.75 -1.53125 C 0.75 -1.175781 0.835938 -0.910156 1.015625 -0.734375 C 1.171875 -0.585938 1.375 -0.515625 1.625 -0.515625 C 1.914062 -0.515625 2.148438 -0.578125 2.328125 -0.703125 C 2.390625 -0.742188 2.441406 -0.796875 2.484375 -0.859375 L 2.5 -0.859375 L 2.5 -0.234375 C 2.269531 -0.0351562 1.957031 0.0625 1.5625 0.0625 C 1.101562 0.0625 0.742188 -0.0820312 0.484375 -0.375 C 0.234375 -0.65625 0.109375 -1.023438 0.109375 -1.484375 C 0.109375 -1.960938 0.25 -2.34375 0.53125 -2.625 C 0.800781 -2.90625 1.203125 -3.046875 1.734375 -3.046875 Z M 1.734375 -3.046875 "/></g></g></g><g fill="#d2ae6d" fill-opacity="1"><g transform="translate(58.991286, 36.377455)"><g><path d="M 0.625 -0.34375 C 0.488281 -0.476562 0.378906 -0.632812 0.296875 -0.8125 C 0.222656 -1 0.1875 -1.203125 0.1875 -1.421875 C 0.1875 -1.640625 0.222656 -1.847656 0.296875 -2.046875 C 0.367188 -2.242188 0.472656 -2.414062 0.609375 -2.5625 C 0.753906 -2.707031 0.921875 -2.820312 1.109375 -2.90625 C 1.304688 -3 1.523438 -3.046875 1.765625 -3.046875 C 2.179688 -3.046875 2.53125 -2.914062 2.8125 -2.65625 C 3.113281 -2.375 3.265625 -2 3.265625 -1.53125 C 3.265625 -1.070312 3.109375 -0.6875 2.796875 -0.375 C 2.597656 -0.1875 2.367188 -0.0625 2.109375 0 C 1.972656 0.0390625 1.816406 0.0625 1.640625 0.0625 C 1.472656 0.0625 1.296875 0.0234375 1.109375 -0.046875 C 0.929688 -0.117188 0.769531 -0.21875 0.625 -0.34375 Z M 0.8125 -1.453125 C 0.8125 -1.316406 0.832031 -1.1875 0.875 -1.0625 C 0.925781 -0.945312 0.992188 -0.847656 1.078125 -0.765625 C 1.253906 -0.585938 1.476562 -0.5 1.75 -0.5 C 2.019531 -0.5 2.234375 -0.585938 2.390625 -0.765625 C 2.554688 -0.941406 2.640625 -1.179688 2.640625 -1.484375 C 2.640625 -1.765625 2.5625 -2 2.40625 -2.1875 C 2.238281 -2.394531 2.007812 -2.5 1.71875 -2.5 C 1.4375 -2.5 1.210938 -2.394531 1.046875 -2.1875 C 0.890625 -1.988281 0.8125 -1.742188 0.8125 -1.453125 Z M 0.8125 -1.453125 "/></g></g></g><g fill="#d2ae6d" fill-opacity="1"><g transform="translate(63.095665, 36.377455)"><g><path d="M 0.40625 0 C 0.414062 -0.0507812 0.421875 -0.109375 0.421875 -0.171875 L 0.421875 -3 L 0.875 -3 L 2.0625 -1.109375 L 2.0625 -2.84375 C 2.0625 -2.925781 2.054688 -2.976562 2.046875 -3 L 2.65625 -3 C 2.644531 -2.9375 2.640625 -2.867188 2.640625 -2.796875 L 2.640625 0 L 2.171875 0 L 1 -1.796875 L 1 0 Z M 0.40625 0 "/></g></g></g><g fill="#d2ae6d" fill-opacity="1"><g transform="translate(66.803519, 36.377455)"><g><path d="M 1.109375 0.0625 C 0.867188 0.0625 0.644531 0.0390625 0.4375 0 L 0.4375 -3.015625 C 0.632812 -3.035156 0.863281 -3.046875 1.125 -3.046875 C 1.382812 -3.046875 1.617188 -3.007812 1.828125 -2.9375 C 2.046875 -2.863281 2.222656 -2.765625 2.359375 -2.640625 C 2.648438 -2.367188 2.796875 -2 2.796875 -1.53125 C 2.796875 -1 2.632812 -0.59375 2.3125 -0.3125 C 2.019531 -0.0625 1.617188 0.0625 1.109375 0.0625 Z M 1.015625 -0.5 C 1.109375 -0.476562 1.203125 -0.46875 1.296875 -0.46875 C 1.398438 -0.46875 1.507812 -0.484375 1.625 -0.515625 C 1.738281 -0.554688 1.835938 -0.617188 1.921875 -0.703125 C 2.097656 -0.867188 2.1875 -1.117188 2.1875 -1.453125 C 2.1875 -1.984375 1.988281 -2.3125 1.59375 -2.4375 C 1.46875 -2.476562 1.316406 -2.5 1.140625 -2.5 L 1.078125 -2.5 C 1.054688 -2.5 1.035156 -2.5 1.015625 -2.5 Z M 1.015625 -0.5 "/></g></g></g><g fill="#d2ae6d" fill-opacity="1"><g transform="translate(70.522639, 36.377455)"><g/></g></g><g fill="#d2ae6d" fill-opacity="1"><g transform="translate(72.698466, 36.377455)"><g><path d="M 1.734375 -3.046875 C 2.015625 -3.046875 2.253906 -3 2.453125 -2.90625 L 2.453125 -2.21875 L 2.4375 -2.203125 C 2.351562 -2.335938 2.175781 -2.425781 1.90625 -2.46875 C 1.832031 -2.476562 1.734375 -2.484375 1.609375 -2.484375 C 1.484375 -2.484375 1.363281 -2.457031 1.25 -2.40625 C 1.132812 -2.363281 1.039062 -2.300781 0.96875 -2.21875 C 0.820312 -2.0625 0.75 -1.832031 0.75 -1.53125 C 0.75 -1.175781 0.835938 -0.910156 1.015625 -0.734375 C 1.171875 -0.585938 1.375 -0.515625 1.625 -0.515625 C 1.914062 -0.515625 2.148438 -0.578125 2.328125 -0.703125 C 2.390625 -0.742188 2.441406 -0.796875 2.484375 -0.859375 L 2.5 -0.859375 L 2.5 -0.234375 C 2.269531 -0.0351562 1.957031 0.0625 1.5625 0.0625 C 1.101562 0.0625 0.742188 -0.0820312 0.484375 -0.375 C 0.234375 -0.65625 0.109375 -1.023438 0.109375 -1.484375 C 0.109375 -1.960938 0.25 -2.34375 0.53125 -2.625 C 0.800781 -2.90625 1.203125 -3.046875 1.734375 -3.046875 Z M 1.734375 -3.046875 "/></g></g></g><g fill="#d2ae6d" fill-opacity="1"><g transform="translate(76.021061, 36.377455)"><g><path d="M 1 0.015625 C 0.851562 0.00390625 0.679688 0 0.484375 0 L 0.40625 0 L 0.40625 -3 C 0.5 -3 0.566406 -3 0.609375 -3 L 0.703125 -3 C 0.816406 -3 0.914062 -3.003906 1 -3.015625 L 1 -1.8125 L 2.046875 -1.8125 L 2.046875 -3 C 2.171875 -3 2.289062 -3 2.40625 -3 C 2.53125 -3 2.609375 -3.003906 2.640625 -3.015625 L 2.640625 0.015625 C 2.566406 0.00390625 2.421875 0 2.203125 0 L 2.046875 0 L 2.046875 -1.265625 L 1 -1.265625 Z M 1 0.015625 "/></g></g></g><g fill="#d2ae6d" fill-opacity="1"><g transform="translate(79.74018, 36.377455)"><g><path d="M 0.609375 0.015625 C 0.472656 0.00390625 0.320312 0 0.15625 0 L -0.03125 0 L 0.953125 -2.75 C 0.992188 -2.863281 1.015625 -2.929688 1.015625 -2.953125 C 1.015625 -2.972656 1.015625 -2.988281 1.015625 -3 C 1.117188 -3 1.222656 -3 1.328125 -3 C 1.421875 -3 1.53125 -3 1.65625 -3 C 1.65625 -2.988281 1.65625 -2.976562 1.65625 -2.96875 C 1.65625 -2.9375 1.675781 -2.859375 1.71875 -2.734375 L 2.71875 0 C 2.6875 0 2.648438 0 2.609375 0 C 2.609375 0 2.570312 0 2.5 0 C 2.457031 0 2.421875 0 2.390625 0 L 2.046875 0 L 1.828125 -0.640625 L 0.8125 -0.640625 Z M 1.65625 -1.1875 L 1.3125 -2.234375 L 0.984375 -1.1875 Z M 1.65625 -1.1875 "/></g></g></g><g fill="#d2ae6d" fill-opacity="1"><g transform="translate(83.083052, 36.377455)"><g><path d="M 0.40625 0 C 0.414062 -0.0507812 0.421875 -0.109375 0.421875 -0.171875 L 0.421875 -3 L 0.875 -3 L 2.0625 -1.109375 L 2.0625 -2.84375 C 2.0625 -2.925781 2.054688 -2.976562 2.046875 -3 L 2.65625 -3 C 2.644531 -2.9375 2.640625 -2.867188 2.640625 -2.796875 L 2.640625 0 L 2.171875 0 L 1 -1.796875 L 1 0 Z M 0.40625 0 "/></g></g></g><g fill="#d2ae6d" fill-opacity="1"><g transform="translate(86.790906, 36.377455)"><g><path d="M 1.734375 -3.046875 C 2.015625 -3.046875 2.253906 -3 2.453125 -2.90625 L 2.453125 -2.21875 L 2.4375 -2.203125 C 2.351562 -2.335938 2.175781 -2.425781 1.90625 -2.46875 C 1.832031 -2.476562 1.734375 -2.484375 1.609375 -2.484375 C 1.484375 -2.484375 1.363281 -2.457031 1.25 -2.40625 C 1.132812 -2.363281 1.039062 -2.300781 0.96875 -2.21875 C 0.820312 -2.0625 0.75 -1.832031 0.75 -1.53125 C 0.75 -1.175781 0.835938 -0.910156 1.015625 -0.734375 C 1.171875 -0.585938 1.375 -0.515625 1.625 -0.515625 C 1.914062 -0.515625 2.148438 -0.578125 2.328125 -0.703125 C 2.390625 -0.742188 2.441406 -0.796875 2.484375 -0.859375 L 2.5 -0.859375 L 2.5 -0.234375 C 2.269531 -0.0351562 1.957031 0.0625 1.5625 0.0625 C 1.101562 0.0625 0.742188 -0.0820312 0.484375 -0.375 C 0.234375 -0.65625 0.109375 -1.023438 0.109375 -1.484375 C 0.109375 -1.960938 0.25 -2.34375 0.53125 -2.625 C 0.800781 -2.90625 1.203125 -3.046875 1.734375 -3.046875 Z M 1.734375 -3.046875 "/></g></g></g><g fill="#d2ae6d" fill-opacity="1"><g transform="translate(90.113503, 36.377455)"><g><path d="M 1.890625 -0.546875 C 1.984375 -0.546875 2.050781 -0.550781 2.09375 -0.5625 L 2.078125 0 L 0.390625 0 L 0.390625 -3.015625 C 0.429688 -3.003906 0.472656 -3 0.515625 -3 L 0.6875 -3 C 0.789062 -3 0.898438 -3 1.015625 -3 C 1.359375 -3 1.703125 -3.003906 2.046875 -3.015625 C 2.023438 -2.878906 2.015625 -2.703125 2.015625 -2.484375 C 2.015625 -2.460938 2.015625 -2.441406 2.015625 -2.421875 C 1.941406 -2.441406 1.832031 -2.453125 1.6875 -2.453125 L 0.96875 -2.453125 L 0.96875 -1.875 L 1.515625 -1.875 C 1.671875 -1.875 1.769531 -1.878906 1.8125 -1.890625 L 1.8125 -1.34375 C 1.738281 -1.34375 1.644531 -1.34375 1.53125 -1.34375 L 0.96875 -1.34375 L 0.96875 -0.546875 Z M 1.890625 -0.546875 "/></g></g></g><g fill="#d2ae6d" fill-opacity="1"><g transform="translate(69.280211, 40.593361)"><g><path d="M 1.140625 -1.90625 C 1.316406 -1.90625 1.445312 -1.867188 1.53125 -1.796875 C 1.625 -1.722656 1.671875 -1.625 1.671875 -1.5 C 1.671875 -1.363281 1.628906 -1.238281 1.546875 -1.125 C 1.460938 -1.007812 1.34375 -0.921875 1.1875 -0.859375 C 1.03125 -0.796875 0.851562 -0.765625 0.65625 -0.765625 L 0.578125 -0.765625 L 0.453125 -0.28125 C 0.441406 -0.269531 0.429688 -0.25 0.421875 -0.21875 C 0.421875 -0.1875 0.421875 -0.164062 0.421875 -0.15625 C 0.421875 -0.113281 0.429688 -0.0859375 0.453125 -0.078125 C 0.484375 -0.0664062 0.535156 -0.0546875 0.609375 -0.046875 L 0.59375 0 C 0.507812 -0.0078125 0.398438 -0.015625 0.265625 -0.015625 C 0.109375 -0.015625 -0.0078125 -0.0078125 -0.09375 0 L -0.078125 -0.046875 C -0.015625 -0.0546875 0.03125 -0.0664062 0.0625 -0.078125 C 0.09375 -0.0859375 0.117188 -0.109375 0.140625 -0.140625 C 0.160156 -0.171875 0.179688 -0.21875 0.203125 -0.28125 L 0.5625 -1.625 C 0.570312 -1.6875 0.578125 -1.726562 0.578125 -1.75 C 0.578125 -1.789062 0.5625 -1.816406 0.53125 -1.828125 C 0.507812 -1.847656 0.460938 -1.859375 0.390625 -1.859375 L 0.40625 -1.90625 C 0.476562 -1.90625 0.59375 -1.90625 0.75 -1.90625 C 0.832031 -1.90625 0.894531 -1.90625 0.9375 -1.90625 Z M 0.6875 -0.828125 C 0.9375 -0.828125 1.117188 -0.890625 1.234375 -1.015625 C 1.347656 -1.148438 1.40625 -1.328125 1.40625 -1.546875 C 1.40625 -1.648438 1.375 -1.726562 1.3125 -1.78125 C 1.257812 -1.832031 1.175781 -1.859375 1.0625 -1.859375 C 1.007812 -1.859375 0.96875 -1.847656 0.9375 -1.828125 C 0.90625 -1.816406 0.878906 -1.796875 0.859375 -1.765625 C 0.835938 -1.734375 0.820312 -1.6875 0.8125 -1.625 L 0.59375 -0.828125 Z M 0.6875 -0.828125 "/></g></g></g><g fill="#d2ae6d" fill-opacity="1"><g transform="translate(71.008504, 40.593361)"><g><path d="M 1.0625 -1.421875 C 1.113281 -1.421875 1.15625 -1.40625 1.1875 -1.375 C 1.21875 -1.351562 1.234375 -1.316406 1.234375 -1.265625 C 1.234375 -1.210938 1.210938 -1.164062 1.171875 -1.125 C 1.128906 -1.09375 1.082031 -1.078125 1.03125 -1.078125 C 1 -1.078125 0.972656 -1.082031 0.953125 -1.09375 C 0.941406 -1.113281 0.9375 -1.140625 0.9375 -1.171875 C 0.9375 -1.210938 0.945312 -1.25 0.96875 -1.28125 C 0.988281 -1.3125 1.015625 -1.332031 1.046875 -1.34375 C 1.046875 -1.351562 1.035156 -1.359375 1.015625 -1.359375 C 0.921875 -1.359375 0.816406 -1.253906 0.703125 -1.046875 C 0.585938 -0.835938 0.476562 -0.5625 0.375 -0.21875 L 0.328125 0 L 0.09375 0 L 0.421875 -1.15625 C 0.429688 -1.195312 0.4375 -1.234375 0.4375 -1.265625 C 0.4375 -1.304688 0.414062 -1.328125 0.375 -1.328125 C 0.332031 -1.328125 0.296875 -1.304688 0.265625 -1.265625 C 0.234375 -1.222656 0.203125 -1.148438 0.171875 -1.046875 L 0.125 -0.953125 L 0.078125 -0.953125 L 0.15625 -1.15625 C 0.21875 -1.332031 0.320312 -1.421875 0.46875 -1.421875 C 0.570312 -1.421875 0.625 -1.367188 0.625 -1.265625 C 0.625 -1.210938 0.613281 -1.140625 0.59375 -1.046875 L 0.5 -0.703125 C 0.601562 -0.960938 0.695312 -1.144531 0.78125 -1.25 C 0.863281 -1.363281 0.957031 -1.421875 1.0625 -1.421875 Z M 1.0625 -1.421875 "/></g></g></g><g fill="#d2ae6d" fill-opacity="1"><g transform="translate(72.295939, 40.593361)"><g><path d="M 0.0625 -0.390625 C 0.0625 -0.523438 0.09375 -0.675781 0.15625 -0.84375 C 0.21875 -1.007812 0.304688 -1.144531 0.421875 -1.25 C 0.546875 -1.363281 0.6875 -1.421875 0.84375 -1.421875 C 0.957031 -1.421875 1.046875 -1.382812 1.109375 -1.3125 C 1.171875 -1.25 1.203125 -1.144531 1.203125 -1 C 1.203125 -0.863281 1.171875 -0.710938 1.109375 -0.546875 C 1.046875 -0.378906 0.953125 -0.238281 0.828125 -0.125 C 0.710938 -0.0195312 0.578125 0.03125 0.421875 0.03125 C 0.304688 0.03125 0.21875 0 0.15625 -0.0625 C 0.09375 -0.132812 0.0625 -0.242188 0.0625 -0.390625 Z M 0.828125 -1.375 C 0.734375 -1.375 0.644531 -1.3125 0.5625 -1.1875 C 0.476562 -1.070312 0.410156 -0.925781 0.359375 -0.75 C 0.316406 -0.582031 0.296875 -0.414062 0.296875 -0.25 C 0.296875 -0.164062 0.304688 -0.101562 0.328125 -0.0625 C 0.347656 -0.03125 0.382812 -0.015625 0.4375 -0.015625 C 0.53125 -0.015625 0.617188 -0.0703125 0.703125 -0.1875 C 0.785156 -0.3125 0.847656 -0.457031 0.890625 -0.625 C 0.941406 -0.800781 0.96875 -0.972656 0.96875 -1.140625 C 0.96875 -1.222656 0.957031 -1.28125 0.9375 -1.3125 C 0.914062 -1.351562 0.878906 -1.375 0.828125 -1.375 Z M 0.828125 -1.375 "/></g></g></g><g fill="#d2ae6d" fill-opacity="1"><g transform="translate(73.751063, 40.593361)"><g><path d="M 1.28125 -0.4375 L 1.328125 -0.4375 L 1.265625 -0.234375 C 1.234375 -0.140625 1.1875 -0.0703125 1.125 -0.03125 C 1.070312 0.0078125 1.015625 0.03125 0.953125 0.03125 C 0.898438 0.03125 0.859375 0.0195312 0.828125 0 C 0.796875 -0.03125 0.78125 -0.0703125 0.78125 -0.125 C 0.78125 -0.175781 0.789062 -0.25 0.8125 -0.34375 L 0.859375 -0.484375 C 0.773438 -0.296875 0.6875 -0.160156 0.59375 -0.078125 C 0.507812 -0.00390625 0.414062 0.03125 0.3125 0.03125 C 0.226562 0.03125 0.160156 0.00390625 0.109375 -0.046875 C 0.0546875 -0.109375 0.03125 -0.195312 0.03125 -0.3125 C 0.03125 -0.46875 0.0664062 -0.628906 0.140625 -0.796875 C 0.222656 -0.972656 0.332031 -1.117188 0.46875 -1.234375 C 0.601562 -1.359375 0.75 -1.421875 0.90625 -1.421875 C 0.9375 -1.421875 0.96875 -1.410156 1 -1.390625 C 1.03125 -1.367188 1.054688 -1.335938 1.078125 -1.296875 L 1.203125 -1.796875 C 1.210938 -1.828125 1.21875 -1.851562 1.21875 -1.875 C 1.21875 -1.914062 1.203125 -1.941406 1.171875 -1.953125 C 1.140625 -1.972656 1.09375 -1.984375 1.03125 -1.984375 L 1.046875 -2.03125 C 1.140625 -2.039062 1.222656 -2.050781 1.296875 -2.0625 C 1.378906 -2.082031 1.457031 -2.113281 1.53125 -2.15625 L 1 -0.234375 C 0.988281 -0.191406 0.984375 -0.160156 0.984375 -0.140625 C 0.984375 -0.0859375 1.003906 -0.0625 1.046875 -0.0625 C 1.078125 -0.0625 1.109375 -0.0820312 1.140625 -0.125 C 1.171875 -0.164062 1.207031 -0.238281 1.25 -0.34375 Z M 0.390625 -0.046875 C 0.441406 -0.046875 0.503906 -0.0820312 0.578125 -0.15625 C 0.648438 -0.238281 0.71875 -0.34375 0.78125 -0.46875 C 0.851562 -0.59375 0.910156 -0.726562 0.953125 -0.875 L 1.046875 -1.234375 C 1.035156 -1.273438 1.015625 -1.304688 0.984375 -1.328125 C 0.960938 -1.347656 0.9375 -1.359375 0.90625 -1.359375 C 0.800781 -1.359375 0.695312 -1.300781 0.59375 -1.1875 C 0.5 -1.070312 0.421875 -0.925781 0.359375 -0.75 C 0.296875 -0.582031 0.265625 -0.425781 0.265625 -0.28125 C 0.265625 -0.125 0.304688 -0.046875 0.390625 -0.046875 Z M 0.390625 -0.046875 "/></g></g></g><g fill="#d2ae6d" fill-opacity="1"><g transform="translate(75.352238, 40.593361)"><g><path d="M 1.34375 -0.4375 L 1.40625 -0.4375 L 1.328125 -0.234375 C 1.265625 -0.0546875 1.15625 0.03125 1 0.03125 C 0.976562 0.03125 0.953125 0.0234375 0.921875 0.015625 C 0.898438 0.00390625 0.882812 -0.0078125 0.875 -0.03125 C 0.851562 -0.0625 0.84375 -0.09375 0.84375 -0.125 C 0.84375 -0.164062 0.859375 -0.238281 0.890625 -0.34375 L 0.96875 -0.671875 C 0.863281 -0.421875 0.757812 -0.238281 0.65625 -0.125 C 0.5625 -0.0195312 0.457031 0.03125 0.34375 0.03125 C 0.1875 0.03125 0.109375 -0.0351562 0.109375 -0.171875 C 0.109375 -0.222656 0.125 -0.289062 0.15625 -0.375 L 0.421875 -1.15625 C 0.429688 -1.195312 0.4375 -1.234375 0.4375 -1.265625 C 0.4375 -1.304688 0.414062 -1.328125 0.375 -1.328125 C 0.332031 -1.328125 0.296875 -1.304688 0.265625 -1.265625 C 0.234375 -1.222656 0.203125 -1.148438 0.171875 -1.046875 L 0.125 -0.953125 L 0.078125 -0.953125 L 0.140625 -1.15625 C 0.210938 -1.332031 0.320312 -1.421875 0.46875 -1.421875 C 0.59375 -1.421875 0.65625 -1.367188 0.65625 -1.265625 C 0.65625 -1.203125 0.644531 -1.128906 0.625 -1.046875 L 0.359375 -0.28125 C 0.335938 -0.21875 0.328125 -0.171875 0.328125 -0.140625 C 0.328125 -0.078125 0.359375 -0.046875 0.421875 -0.046875 C 0.492188 -0.046875 0.570312 -0.0976562 0.65625 -0.203125 C 0.738281 -0.304688 0.820312 -0.445312 0.90625 -0.625 C 0.988281 -0.8125 1.0625 -1.019531 1.125 -1.25 L 1.15625 -1.390625 C 1.257812 -1.390625 1.34375 -1.398438 1.40625 -1.421875 L 1.0625 -0.234375 C 1.050781 -0.179688 1.046875 -0.144531 1.046875 -0.125 C 1.046875 -0.0820312 1.066406 -0.0625 1.109375 -0.0625 C 1.140625 -0.0625 1.171875 -0.0820312 1.203125 -0.125 C 1.242188 -0.164062 1.28125 -0.238281 1.3125 -0.34375 Z M 1.34375 -0.4375 "/></g></g></g><g fill="#d2ae6d" fill-opacity="1"><g transform="translate(77.021029, 40.593361)"><g><path d="M 0.875 -1.375 C 0.78125 -1.375 0.6875 -1.320312 0.59375 -1.21875 C 0.507812 -1.125 0.4375 -0.992188 0.375 -0.828125 C 0.320312 -0.671875 0.296875 -0.503906 0.296875 -0.328125 C 0.296875 -0.242188 0.3125 -0.179688 0.34375 -0.140625 C 0.382812 -0.0976562 0.429688 -0.078125 0.484375 -0.078125 C 0.640625 -0.078125 0.773438 -0.164062 0.890625 -0.34375 L 0.953125 -0.328125 C 0.890625 -0.222656 0.804688 -0.132812 0.703125 -0.0625 C 0.609375 0 0.507812 0.03125 0.40625 0.03125 C 0.289062 0.03125 0.203125 0 0.140625 -0.0625 C 0.078125 -0.132812 0.046875 -0.234375 0.046875 -0.359375 C 0.046875 -0.503906 0.078125 -0.660156 0.140625 -0.828125 C 0.210938 -0.992188 0.3125 -1.132812 0.4375 -1.25 C 0.5625 -1.363281 0.703125 -1.421875 0.859375 -1.421875 C 0.941406 -1.421875 1.007812 -1.398438 1.0625 -1.359375 C 1.125 -1.316406 1.15625 -1.265625 1.15625 -1.203125 C 1.15625 -1.140625 1.132812 -1.085938 1.09375 -1.046875 C 1.0625 -1.003906 1.019531 -0.984375 0.96875 -0.984375 C 0.925781 -0.984375 0.894531 -0.992188 0.875 -1.015625 C 0.863281 -1.035156 0.859375 -1.0625 0.859375 -1.09375 C 0.859375 -1.132812 0.875 -1.171875 0.90625 -1.203125 C 0.945312 -1.242188 1 -1.273438 1.0625 -1.296875 C 1.019531 -1.347656 0.957031 -1.375 0.875 -1.375 Z M 0.875 -1.375 "/></g></g></g><g fill="#d2ae6d" fill-opacity="1"><g transform="translate(78.324693, 40.593361)"><g><path d="M 0.328125 -0.234375 C 0.316406 -0.210938 0.3125 -0.191406 0.3125 -0.171875 C 0.3125 -0.128906 0.320312 -0.0976562 0.34375 -0.078125 C 0.375 -0.0664062 0.40625 -0.0625 0.4375 -0.0625 C 0.476562 -0.0625 0.519531 -0.078125 0.5625 -0.109375 C 0.601562 -0.148438 0.640625 -0.222656 0.671875 -0.328125 L 0.71875 -0.4375 L 0.765625 -0.4375 L 0.703125 -0.265625 C 0.671875 -0.148438 0.625 -0.0703125 0.5625 -0.03125 C 0.5 0.0078125 0.425781 0.03125 0.34375 0.03125 C 0.257812 0.03125 0.195312 0.015625 0.15625 -0.015625 C 0.113281 -0.0546875 0.09375 -0.113281 0.09375 -0.1875 C 0.09375 -0.226562 0.101562 -0.28125 0.125 -0.34375 L 0.40625 -1.328125 L 0.171875 -1.328125 L 0.171875 -1.390625 L 0.421875 -1.390625 L 0.546875 -1.796875 C 0.640625 -1.804688 0.71875 -1.820312 0.78125 -1.84375 L 0.65625 -1.390625 L 1.015625 -1.390625 L 1 -1.328125 L 0.640625 -1.328125 Z M 0.328125 -0.234375 "/></g></g></g><g fill="#d2ae6d" fill-opacity="1"><g transform="translate(79.368711, 40.593361)"><g><path d="M 0.515625 -1.84375 C 0.515625 -1.894531 0.53125 -1.941406 0.5625 -1.984375 C 0.601562 -2.023438 0.648438 -2.046875 0.703125 -2.046875 C 0.742188 -2.046875 0.773438 -2.03125 0.796875 -2 C 0.828125 -1.976562 0.84375 -1.945312 0.84375 -1.90625 C 0.84375 -1.851562 0.820312 -1.804688 0.78125 -1.765625 C 0.738281 -1.722656 0.691406 -1.703125 0.640625 -1.703125 C 0.597656 -1.703125 0.566406 -1.710938 0.546875 -1.734375 C 0.523438 -1.765625 0.515625 -1.800781 0.515625 -1.84375 Z M 0.421875 -1.15625 C 0.441406 -1.195312 0.453125 -1.234375 0.453125 -1.265625 C 0.453125 -1.304688 0.429688 -1.328125 0.390625 -1.328125 C 0.347656 -1.328125 0.3125 -1.304688 0.28125 -1.265625 C 0.25 -1.222656 0.210938 -1.148438 0.171875 -1.046875 L 0.140625 -0.953125 L 0.09375 -0.953125 L 0.15625 -1.15625 C 0.1875 -1.25 0.234375 -1.316406 0.296875 -1.359375 C 0.359375 -1.398438 0.421875 -1.421875 0.484375 -1.421875 C 0.609375 -1.421875 0.671875 -1.363281 0.671875 -1.25 C 0.671875 -1.195312 0.65625 -1.128906 0.625 -1.046875 L 0.34375 -0.234375 C 0.320312 -0.191406 0.3125 -0.15625 0.3125 -0.125 C 0.3125 -0.0820312 0.332031 -0.0625 0.375 -0.0625 C 0.414062 -0.0625 0.453125 -0.0820312 0.484375 -0.125 C 0.515625 -0.164062 0.550781 -0.238281 0.59375 -0.34375 L 0.625 -0.4375 L 0.6875 -0.4375 L 0.609375 -0.234375 C 0.578125 -0.140625 0.53125 -0.0703125 0.46875 -0.03125 C 0.40625 0.0078125 0.34375 0.03125 0.28125 0.03125 C 0.15625 0.03125 0.09375 -0.0195312 0.09375 -0.125 C 0.09375 -0.175781 0.109375 -0.25 0.140625 -0.34375 Z M 0.421875 -1.15625 "/></g></g></g><g fill="#d2ae6d" fill-opacity="1"><g transform="translate(80.320771, 40.593361)"><g><path d="M 0.0625 -0.390625 C 0.0625 -0.523438 0.09375 -0.675781 0.15625 -0.84375 C 0.21875 -1.007812 0.304688 -1.144531 0.421875 -1.25 C 0.546875 -1.363281 0.6875 -1.421875 0.84375 -1.421875 C 0.957031 -1.421875 1.046875 -1.382812 1.109375 -1.3125 C 1.171875 -1.25 1.203125 -1.144531 1.203125 -1 C 1.203125 -0.863281 1.171875 -0.710938 1.109375 -0.546875 C 1.046875 -0.378906 0.953125 -0.238281 0.828125 -0.125 C 0.710938 -0.0195312 0.578125 0.03125 0.421875 0.03125 C 0.304688 0.03125 0.21875 0 0.15625 -0.0625 C 0.09375 -0.132812 0.0625 -0.242188 0.0625 -0.390625 Z M 0.828125 -1.375 C 0.734375 -1.375 0.644531 -1.3125 0.5625 -1.1875 C 0.476562 -1.070312 0.410156 -0.925781 0.359375 -0.75 C 0.316406 -0.582031 0.296875 -0.414062 0.296875 -0.25 C 0.296875 -0.164062 0.304688 -0.101562 0.328125 -0.0625 C 0.347656 -0.03125 0.382812 -0.015625 0.4375 -0.015625 C 0.53125 -0.015625 0.617188 -0.0703125 0.703125 -0.1875 C 0.785156 -0.3125 0.847656 -0.457031 0.890625 -0.625 C 0.941406 -0.800781 0.96875 -0.972656 0.96875 -1.140625 C 0.96875 -1.222656 0.957031 -1.28125 0.9375 -1.3125 C 0.914062 -1.351562 0.878906 -1.375 0.828125 -1.375 Z M 0.828125 -1.375 "/></g></g></g><g fill="#d2ae6d" fill-opacity="1"><g transform="translate(81.775896, 40.593361)"><g><path d="M 1.4375 -0.4375 L 1.359375 -0.234375 C 1.296875 -0.0546875 1.1875 0.03125 1.03125 0.03125 C 0.957031 0.03125 0.90625 0.00390625 0.875 -0.046875 C 0.851562 -0.0664062 0.84375 -0.09375 0.84375 -0.125 C 0.84375 -0.175781 0.859375 -0.25 0.890625 -0.34375 L 1.15625 -1.109375 C 1.164062 -1.171875 1.171875 -1.21875 1.171875 -1.25 C 1.171875 -1.3125 1.144531 -1.34375 1.09375 -1.34375 C 1.019531 -1.34375 0.9375 -1.289062 0.84375 -1.1875 C 0.757812 -1.09375 0.675781 -0.957031 0.59375 -0.78125 C 0.507812 -0.601562 0.4375 -0.410156 0.375 -0.203125 L 0.328125 0 L 0.09375 0 L 0.421875 -1.15625 C 0.429688 -1.207031 0.4375 -1.242188 0.4375 -1.265625 C 0.4375 -1.304688 0.414062 -1.328125 0.375 -1.328125 C 0.332031 -1.328125 0.296875 -1.304688 0.265625 -1.265625 C 0.242188 -1.222656 0.210938 -1.148438 0.171875 -1.046875 L 0.140625 -0.953125 L 0.078125 -0.953125 L 0.15625 -1.15625 C 0.21875 -1.332031 0.320312 -1.421875 0.46875 -1.421875 C 0.53125 -1.421875 0.570312 -1.40625 0.59375 -1.375 C 0.613281 -1.351562 0.625 -1.316406 0.625 -1.265625 C 0.625 -1.210938 0.613281 -1.140625 0.59375 -1.046875 L 0.5 -0.671875 C 0.613281 -0.953125 0.722656 -1.144531 0.828125 -1.25 C 0.929688 -1.363281 1.046875 -1.421875 1.171875 -1.421875 C 1.316406 -1.421875 1.390625 -1.351562 1.390625 -1.21875 C 1.390625 -1.164062 1.378906 -1.097656 1.359375 -1.015625 L 1.09375 -0.234375 C 1.082031 -0.191406 1.078125 -0.15625 1.078125 -0.125 C 1.078125 -0.0820312 1.097656 -0.0625 1.140625 -0.0625 C 1.171875 -0.0625 1.203125 -0.0820312 1.234375 -0.125 C 1.273438 -0.164062 1.3125 -0.238281 1.34375 -0.34375 L 1.375 -0.4375 Z M 1.4375 -0.4375 "/></g></g></g><g fill="#d2ae6d" fill-opacity="1"><g transform="translate(83.479848, 40.593361)"><g><path d="M 0.15625 -0.046875 C 0.175781 -0.0351562 0.191406 -0.0234375 0.203125 -0.015625 C 0.222656 -0.015625 0.25 -0.015625 0.28125 -0.015625 C 0.363281 -0.015625 0.429688 -0.0351562 0.484375 -0.078125 C 0.535156 -0.128906 0.5625 -0.203125 0.5625 -0.296875 C 0.5625 -0.347656 0.546875 -0.398438 0.515625 -0.453125 C 0.492188 -0.515625 0.460938 -0.582031 0.421875 -0.65625 C 0.359375 -0.738281 0.3125 -0.804688 0.28125 -0.859375 C 0.25 -0.910156 0.234375 -0.972656 0.234375 -1.046875 C 0.234375 -1.117188 0.253906 -1.179688 0.296875 -1.234375 C 0.335938 -1.296875 0.390625 -1.34375 0.453125 -1.375 C 0.515625 -1.40625 0.582031 -1.421875 0.65625 -1.421875 C 0.75 -1.421875 0.828125 -1.40625 0.890625 -1.375 C 0.953125 -1.34375 0.984375 -1.28125 0.984375 -1.1875 C 0.984375 -1.15625 0.972656 -1.125 0.953125 -1.09375 C 0.929688 -1.0625 0.898438 -1.046875 0.859375 -1.046875 C 0.828125 -1.046875 0.800781 -1.054688 0.78125 -1.078125 C 0.757812 -1.097656 0.75 -1.128906 0.75 -1.171875 C 0.75 -1.222656 0.773438 -1.28125 0.828125 -1.34375 C 0.796875 -1.363281 0.753906 -1.375 0.703125 -1.375 C 0.628906 -1.375 0.570312 -1.347656 0.53125 -1.296875 C 0.488281 -1.253906 0.46875 -1.195312 0.46875 -1.125 C 0.46875 -1.070312 0.472656 -1.03125 0.484375 -1 C 0.503906 -0.96875 0.535156 -0.921875 0.578125 -0.859375 L 0.625 -0.78125 C 0.675781 -0.695312 0.710938 -0.625 0.734375 -0.5625 C 0.765625 -0.507812 0.78125 -0.453125 0.78125 -0.390625 C 0.78125 -0.304688 0.757812 -0.226562 0.71875 -0.15625 C 0.675781 -0.09375 0.617188 -0.046875 0.546875 -0.015625 C 0.472656 0.015625 0.394531 0.03125 0.3125 0.03125 C 0.21875 0.03125 0.132812 0.0078125 0.0625 -0.03125 C -0.0078125 -0.0703125 -0.046875 -0.140625 -0.046875 -0.234375 C -0.046875 -0.265625 -0.0351562 -0.289062 -0.015625 -0.3125 C -0.00390625 -0.332031 0.0195312 -0.34375 0.0625 -0.34375 C 0.101562 -0.34375 0.128906 -0.328125 0.140625 -0.296875 C 0.160156 -0.265625 0.171875 -0.226562 0.171875 -0.1875 C 0.171875 -0.15625 0.164062 -0.109375 0.15625 -0.046875 Z M 0.15625 -0.046875 "/></g></g></g></svg>