<svg xmlns="http://www.w3.org/2000/svg" xmlns:xlink="http://www.w3.org/1999/xlink" width="2000" zoomAndPan="magnify" viewBox="0 0 1500 383.999986" height="512" preserveAspectRatio="xMidYMid meet" version="1.0"><defs><g/><clipPath id="954cd2d96c"><path d="M 38.398438 38.398438 L 388.648438 38.398438 L 388.648438 345.898438 L 38.398438 345.898438 Z M 38.398438 38.398438 " clip-rule="nonzero"/></clipPath></defs><g clip-path="url(#954cd2d96c)"><path fill="#000000" d="M 244.179688 144.214844 C 234.765625 143.078125 225.746094 148.335938 222.097656 157.089844 C 218.441406 165.84375 221.054688 175.960938 228.484375 181.851562 C 225.453125 174.789062 225.410156 166.800781 228.371094 159.710938 C 231.328125 152.617188 237.035156 147.027344 244.179688 144.214844 Z M 325.886719 38.425781 C 340.324219 83.332031 319.828125 120.015625 264.386719 148.472656 C 302.914062 119.195312 323.417969 82.507812 325.886719 38.425781 Z M 101.160156 38.425781 C 86.71875 83.332031 107.21875 120.015625 162.660156 148.472656 C 124.128906 119.195312 103.628906 82.507812 101.160156 38.425781 Z M 75.015625 61.460938 C 73.25 104.332031 100.988281 141.890625 158.234375 174.128906 C 190.347656 195.226562 210.011719 220.730469 190.15625 260.355469 C 181.371094 277.882812 165.320312 290.652344 146.273438 295.265625 C 166.074219 293.457031 184.199219 283.410156 196.226562 267.578125 C 231.070312 221.742188 202.273438 185.96875 160.722656 161.414062 C 110.769531 130.132812 82.203125 96.820312 75.015625 61.464844 Z M 158.070312 315.820312 C 178.257812 307.824219 194.863281 291.84375 203.332031 270.851562 C 190.992188 288.679688 172.304688 300.507812 151.695312 304.410156 C 153.472656 308.445312 155.613281 312.257812 158.070312 315.820312 Z M 216.492188 272.847656 C 217.414062 297.101562 223.992188 320.679688 235.5625 341.753906 C 229.515625 343.984375 223.109375 345.394531 216.492188 345.875 Z M 220.726562 270.601562 C 225.890625 294.148438 241.429688 313.601562 262.320312 324.058594 C 257.433594 329.25 251.78125 333.65625 245.574219 337.140625 C 230.320312 318.519531 221.425781 295.175781 220.730469 270.601562 Z M 268.976562 315.820312 C 248.792969 307.824219 232.183594 291.847656 223.714844 270.855469 C 236.054688 288.679688 254.738281 300.507812 275.355469 304.414062 C 273.574219 308.445312 271.429688 312.261719 268.976562 315.824219 Z M 210.558594 272.847656 C 209.632812 297.101562 203.054688 320.679688 191.492188 341.757812 C 197.53125 343.984375 203.933594 345.394531 210.558594 345.875 Z M 206.320312 270.601562 C 201.152344 294.152344 185.613281 313.605469 164.726562 324.058594 C 169.613281 329.25 175.265625 333.65625 181.476562 337.144531 C 196.734375 318.523438 205.621094 295.175781 206.320312 270.601562 Z M 352.027344 61.464844 C 353.800781 104.335938 326.058594 141.894531 268.816406 174.132812 C 236.703125 195.230469 217.035156 220.730469 236.890625 260.359375 C 245.675781 277.886719 261.726562 290.652344 280.777344 295.269531 C 260.976562 293.460938 242.851562 283.414062 230.816406 267.582031 C 195.976562 221.742188 224.773438 185.972656 266.328125 161.417969 C 316.277344 130.136719 344.84375 96.824219 352.027344 61.464844 Z M 50.605469 75.425781 C 46.027344 122.378906 73.851562 153.867188 134.066406 169.894531 C 90.195312 149.472656 62.378906 117.980469 50.605469 75.425781 Z M 103.140625 254.476562 C 132.5 265.371094 165.476562 254.316406 182.347656 227.925781 C 156.789062 244.21875 130.386719 253.070312 103.140625 254.476562 Z M 185.265625 241.6875 C 186.660156 258.148438 177.242188 273.613281 161.988281 279.9375 C 146.742188 286.253906 129.148438 281.980469 118.5 269.351562 C 130.792969 276.292969 145.582031 277.1875 158.617188 271.785156 C 171.652344 266.382812 181.476562 255.285156 185.265625 241.6875 Z M 89.84375 235.328125 C 105.125 246.210938 125.921875 244.964844 139.796875 232.335938 C 122.472656 237.769531 105.824219 238.765625 89.84375 235.328125 Z M 192.113281 221.988281 C 166.53125 192.46875 106.894531 225.988281 66.800781 206.535156 C 95.234375 254.40625 149.097656 205.738281 192.113281 221.988281 Z M 38.398438 158.925781 C 48.125 192.558594 80.425781 206.101562 135.308594 199.554688 C 85.546875 195.265625 53.238281 181.722656 38.398438 158.925781 Z M 40.640625 129.015625 C 64.035156 170.734375 159.957031 175.003906 183.894531 206.28125 C 138.742188 189.15625 47.5 181.941406 40.640625 129.015625 Z M 216.652344 145.460938 C 231.503906 135.703125 243.917969 132.710938 253.894531 136.492188 C 246.160156 126.847656 237.152344 125.058594 226.863281 131.132812 C 220.730469 127.953125 215.539062 127.953125 211.296875 131.132812 C 205.714844 133.296875 199.394531 132.136719 194.949219 128.132812 C 190.496094 124.128906 188.679688 117.964844 190.242188 112.183594 C 185.390625 121.980469 188.34375 133.851562 197.21875 140.226562 C 193.472656 142.496094 188.664062 141.964844 185.511719 138.925781 C 182.355469 135.882812 181.640625 131.097656 183.765625 127.269531 C 178.886719 133.222656 177.707031 141.398438 180.714844 148.492188 C 183.722656 155.582031 190.417969 160.417969 198.089844 161.042969 C 195.167969 169.164062 196.425781 178.203125 201.457031 185.214844 C 200.636719 172.835938 203.917969 160.527344 210.796875 150.195312 C 204.300781 153.320312 196.574219 152.292969 191.113281 147.582031 C 197.394531 147.140625 204.371094 144.148438 212.042969 138.605469 C 221.929688 132.664062 223.46875 134.949219 216.652344 145.460938 Z M 323.90625 254.476562 C 294.546875 265.371094 261.566406 254.316406 244.699219 227.925781 C 270.253906 244.21875 296.65625 253.070312 323.90625 254.476562 Z M 241.78125 241.6875 C 240.390625 258.148438 249.800781 273.613281 265.054688 279.9375 C 280.308594 286.253906 297.894531 281.980469 308.542969 269.351562 C 296.257812 276.292969 281.46875 277.1875 268.425781 271.785156 C 255.394531 266.382812 245.566406 255.285156 241.777344 241.6875 Z M 337.199219 235.328125 C 321.921875 246.210938 301.125 244.964844 287.25 232.335938 C 304.574219 237.769531 321.222656 238.765625 337.199219 235.328125 Z M 234.929688 221.988281 C 260.515625 192.46875 320.148438 225.988281 360.246094 206.535156 C 331.808594 254.40625 277.949219 205.738281 234.929688 221.988281 Z M 388.648438 158.925781 C 378.925781 192.558594 346.621094 206.101562 291.734375 199.554688 C 341.5 195.265625 373.804688 181.722656 388.648438 158.925781 Z M 386.40625 129.015625 C 363.011719 170.734375 267.09375 175.003906 243.152344 206.28125 C 288.300781 189.15625 379.546875 181.941406 386.40625 129.015625 Z M 376.4375 75.425781 C 381.015625 122.378906 353.199219 153.867188 292.976562 169.894531 C 336.847656 149.472656 364.667969 117.980469 376.4375 75.425781 Z M 376.4375 75.425781 " fill-opacity="1" fill-rule="evenodd"/></g><g fill="#000000" fill-opacity="1"><g transform="translate(453.313571, 216.211137)"><g><path d="M 31.890625 -73.59375 C 35.804688 -73.59375 39.628906 -73.019531 43.359375 -71.875 C 47.097656 -70.738281 49.875 -69.617188 51.6875 -68.515625 L 54.3125 -66.765625 L 47.65625 -53.609375 C 47.132812 -53.960938 46.40625 -54.414062 45.46875 -54.96875 C 44.53125 -55.53125 42.773438 -56.273438 40.203125 -57.203125 C 37.640625 -58.140625 35.25 -58.609375 33.03125 -58.609375 C 30.28125 -58.609375 28.160156 -58.023438 26.671875 -56.859375 C 25.179688 -55.691406 24.4375 -54.113281 24.4375 -52.125 C 24.4375 -51.132812 24.785156 -50.210938 25.484375 -49.359375 C 26.191406 -48.515625 27.390625 -47.609375 29.078125 -46.640625 C 30.773438 -45.679688 32.265625 -44.910156 33.546875 -44.328125 C 34.835938 -43.742188 36.828125 -42.867188 39.515625 -41.703125 C 44.179688 -39.710938 48.164062 -37.007812 51.46875 -33.59375 C 54.769531 -30.175781 56.421875 -26.304688 56.421875 -21.984375 C 56.421875 -17.835938 55.675781 -14.21875 54.1875 -11.125 C 52.695312 -8.03125 50.648438 -5.601562 48.046875 -3.84375 C 45.453125 -2.09375 42.578125 -0.796875 39.421875 0.046875 C 36.265625 0.890625 32.847656 1.3125 29.171875 1.3125 C 26.015625 1.3125 22.914062 0.988281 19.875 0.34375 C 16.84375 -0.289062 14.304688 -1.085938 12.265625 -2.046875 C 10.222656 -3.015625 8.382812 -3.96875 6.75 -4.90625 C 5.113281 -5.84375 3.914062 -6.628906 3.15625 -7.265625 L 2.015625 -8.234375 L 10.25 -22.078125 C 10.945312 -21.492188 11.910156 -20.75 13.140625 -19.84375 C 14.367188 -18.9375 16.546875 -17.722656 19.671875 -16.203125 C 22.796875 -14.691406 25.554688 -13.9375 27.953125 -13.9375 C 34.898438 -13.9375 38.375 -16.300781 38.375 -21.03125 C 38.375 -22.019531 38.125 -22.9375 37.625 -23.78125 C 37.132812 -24.632812 36.257812 -25.484375 35 -26.328125 C 33.738281 -27.171875 32.625 -27.84375 31.65625 -28.34375 C 30.695312 -28.84375 29.125 -29.601562 26.9375 -30.625 C 24.75 -31.644531 23.128906 -32.414062 22.078125 -32.9375 C 17.691406 -35.101562 14.300781 -37.804688 11.90625 -41.046875 C 9.519531 -44.285156 8.328125 -47.773438 8.328125 -51.515625 C 8.328125 -57.992188 10.71875 -63.289062 15.5 -67.40625 C 20.289062 -71.53125 25.753906 -73.59375 31.890625 -73.59375 Z M 31.890625 -73.59375 "/></g></g></g><g fill="#000000" fill-opacity="1"><g transform="translate(512.183077, 216.211137)"><g><path d="M 50.71875 -20.328125 L 18.140625 -20.328125 C 18.140625 -17.171875 19.160156 -14.832031 21.203125 -13.3125 C 23.242188 -11.789062 25.460938 -11.03125 27.859375 -11.03125 C 30.367188 -11.03125 32.351562 -11.363281 33.8125 -12.03125 C 35.269531 -12.707031 36.9375 -14.039062 38.8125 -16.03125 L 50.03125 -10.421875 C 45.351562 -2.597656 37.582031 1.3125 26.71875 1.3125 C 19.945312 1.3125 14.132812 -1.003906 9.28125 -5.640625 C 4.4375 -10.285156 2.015625 -15.878906 2.015625 -22.421875 C 2.015625 -28.960938 4.4375 -34.566406 9.28125 -39.234375 C 14.132812 -43.910156 19.945312 -46.25 26.71875 -46.25 C 33.84375 -46.25 39.640625 -44.191406 44.109375 -40.078125 C 48.578125 -35.960938 50.8125 -30.078125 50.8125 -22.421875 C 50.8125 -21.367188 50.78125 -20.671875 50.71875 -20.328125 Z M 18.578125 -28.90625 L 35.65625 -28.90625 C 35.300781 -31.25 34.378906 -33.046875 32.890625 -34.296875 C 31.398438 -35.554688 29.488281 -36.1875 27.15625 -36.1875 C 24.582031 -36.1875 22.535156 -35.515625 21.015625 -34.171875 C 19.503906 -32.828125 18.691406 -31.070312 18.578125 -28.90625 Z M 18.578125 -28.90625 "/></g></g></g><g fill="#000000" fill-opacity="1"><g transform="translate(565.007947, 216.211137)"><g><path d="M 29.171875 -33.546875 C 26.253906 -33.546875 23.742188 -32.46875 21.640625 -30.3125 C 19.535156 -28.15625 18.484375 -25.554688 18.484375 -22.515625 C 18.484375 -19.421875 19.535156 -16.789062 21.640625 -14.625 C 23.742188 -12.46875 26.253906 -11.390625 29.171875 -11.390625 C 30.578125 -11.390625 31.90625 -11.5625 33.15625 -11.90625 C 34.414062 -12.257812 35.335938 -12.613281 35.921875 -12.96875 L 36.703125 -13.484375 L 41.96875 -2.71875 C 41.5625 -2.425781 40.988281 -2.0625 40.25 -1.625 C 39.519531 -1.1875 37.851562 -0.585938 35.25 0.171875 C 32.65625 0.929688 29.867188 1.3125 26.890625 1.3125 C 20.296875 1.3125 14.5 -1.003906 9.5 -5.640625 C 4.507812 -10.285156 2.015625 -15.851562 2.015625 -22.34375 C 2.015625 -28.882812 4.507812 -34.503906 9.5 -39.203125 C 14.5 -43.898438 20.296875 -46.25 26.890625 -46.25 C 29.867188 -46.25 32.613281 -45.898438 35.125 -45.203125 C 37.644531 -44.503906 39.425781 -43.804688 40.46875 -43.109375 L 41.96875 -42.046875 L 36.703125 -31.453125 C 34.773438 -32.847656 32.265625 -33.546875 29.171875 -33.546875 Z M 29.171875 -33.546875 "/></g></g></g><g fill="#000000" fill-opacity="1"><g transform="translate(608.021233, 216.211137)"><g><path d="M 9.5 -5.34375 C 4.507812 -9.78125 2.015625 -15.472656 2.015625 -22.421875 C 2.015625 -29.378906 4.613281 -35.085938 9.8125 -39.546875 C 15.007812 -44.015625 21.4375 -46.25 29.09375 -46.25 C 36.625 -46.25 42.972656 -44 48.140625 -39.5 C 53.304688 -35.007812 55.890625 -29.316406 55.890625 -22.421875 C 55.890625 -15.535156 53.363281 -9.859375 48.3125 -5.390625 C 43.257812 -0.921875 36.851562 1.3125 29.09375 1.3125 C 21.03125 1.3125 14.5 -0.90625 9.5 -5.34375 Z M 21.5 -30.046875 C 19.488281 -28.066406 18.484375 -25.523438 18.484375 -22.421875 C 18.484375 -19.328125 19.445312 -16.800781 21.375 -14.84375 C 23.300781 -12.894531 25.84375 -11.921875 29 -11.921875 C 32.03125 -11.921875 34.523438 -12.910156 36.484375 -14.890625 C 38.441406 -16.878906 39.421875 -19.390625 39.421875 -22.421875 C 39.421875 -25.523438 38.410156 -28.066406 36.390625 -30.046875 C 34.378906 -32.035156 31.914062 -33.03125 29 -33.03125 C 26.019531 -33.03125 23.519531 -32.035156 21.5 -30.046875 Z M 21.5 -30.046875 "/></g></g></g><g fill="#000000" fill-opacity="1"><g transform="translate(665.9271, 216.211137)"><g><path d="M 5.25 0 L 5.25 -44.9375 L 20.765625 -44.9375 L 20.765625 -40.21875 L 20.9375 -40.21875 C 24.96875 -44.238281 29.257812 -46.25 33.8125 -46.25 C 36.03125 -46.25 38.234375 -45.957031 40.421875 -45.375 C 42.617188 -44.789062 44.722656 -43.882812 46.734375 -42.65625 C 48.753906 -41.4375 50.390625 -39.703125 51.640625 -37.453125 C 52.898438 -35.203125 53.53125 -32.585938 53.53125 -29.609375 L 53.53125 0 L 38.015625 0 L 38.015625 -25.40625 C 38.015625 -27.738281 37.269531 -29.78125 35.78125 -31.53125 C 34.289062 -33.289062 32.351562 -34.171875 29.96875 -34.171875 C 27.625 -34.171875 25.503906 -33.265625 23.609375 -31.453125 C 21.710938 -29.640625 20.765625 -27.625 20.765625 -25.40625 L 20.765625 0 Z M 5.25 0 "/></g></g></g><g fill="#000000" fill-opacity="1"><g transform="translate(723.832967, 216.211137)"><g><path d="M 8.3125 -5.5625 C 4.113281 -10.144531 2.015625 -15.765625 2.015625 -22.421875 C 2.015625 -29.085938 4.113281 -34.722656 8.3125 -39.328125 C 12.519531 -43.941406 17.867188 -46.25 24.359375 -46.25 C 30.316406 -46.25 35.222656 -44.382812 39.078125 -40.65625 L 39.078125 -75.34375 L 54.578125 -75.34375 L 54.578125 0 L 39.25 0 L 39.25 -5.078125 L 39.078125 -5.078125 C 35.222656 -0.816406 30.316406 1.3125 24.359375 1.3125 C 17.867188 1.3125 12.519531 -0.976562 8.3125 -5.5625 Z M 21.5 -30.046875 C 19.488281 -28.066406 18.484375 -25.523438 18.484375 -22.421875 C 18.484375 -19.328125 19.445312 -16.800781 21.375 -14.84375 C 23.300781 -12.894531 25.84375 -11.921875 29 -11.921875 C 32.03125 -11.921875 34.523438 -12.910156 36.484375 -14.890625 C 38.441406 -16.878906 39.421875 -19.390625 39.421875 -22.421875 C 39.421875 -25.523438 38.410156 -28.066406 36.390625 -30.046875 C 34.378906 -32.035156 31.914062 -33.03125 29 -33.03125 C 26.019531 -33.03125 23.519531 -32.035156 21.5 -30.046875 Z M 21.5 -30.046875 "/></g></g></g><g fill="#000000" fill-opacity="1"><g transform="translate(783.666113, 216.211137)"><g/></g></g><g fill="#000000" fill-opacity="1"><g transform="translate(807.581855, 216.211137)"><g><path d="M 43.71875 -14.890625 C 46.226562 -14.890625 48.664062 -15.269531 51.03125 -16.03125 C 53.394531 -16.789062 55.132812 -17.519531 56.25 -18.21875 L 57.90625 -19.359375 L 64.921875 -5.34375 C 64.679688 -5.164062 64.359375 -4.929688 63.953125 -4.640625 C 63.546875 -4.347656 62.597656 -3.804688 61.109375 -3.015625 C 59.617188 -2.234375 58.023438 -1.550781 56.328125 -0.96875 C 54.640625 -0.382812 52.421875 0.140625 49.671875 0.609375 C 46.929688 1.078125 44.097656 1.3125 41.171875 1.3125 C 34.453125 1.3125 28.082031 -0.332031 22.0625 -3.625 C 16.050781 -6.925781 11.207031 -11.46875 7.53125 -17.25 C 3.851562 -23.039062 2.015625 -29.289062 2.015625 -36 C 2.015625 -41.082031 3.09375 -45.957031 5.25 -50.625 C 7.414062 -55.300781 10.296875 -59.304688 13.890625 -62.640625 C 17.484375 -65.972656 21.671875 -68.628906 26.453125 -70.609375 C 31.242188 -72.597656 36.148438 -73.59375 41.171875 -73.59375 C 45.847656 -73.59375 50.15625 -73.035156 54.09375 -71.921875 C 58.039062 -70.816406 60.832031 -69.707031 62.46875 -68.59375 L 64.921875 -66.9375 L 57.90625 -52.921875 C 57.5 -53.265625 56.882812 -53.6875 56.0625 -54.1875 C 55.25 -54.6875 53.613281 -55.34375 51.15625 -56.15625 C 48.707031 -56.976562 46.226562 -57.390625 43.71875 -57.390625 C 39.75 -57.390625 36.1875 -56.742188 33.03125 -55.453125 C 29.875 -54.171875 27.375 -52.476562 25.53125 -50.375 C 23.695312 -48.269531 22.296875 -46.003906 21.328125 -43.578125 C 20.367188 -41.160156 19.890625 -38.695312 19.890625 -36.1875 C 19.890625 -30.695312 21.945312 -25.773438 26.0625 -21.421875 C 30.175781 -17.066406 36.0625 -14.890625 43.71875 -14.890625 Z M 43.71875 -14.890625 "/></g></g></g><g fill="#000000" fill-opacity="1"><g transform="translate(873.547244, 216.211137)"><g><path d="M 5.25 0 L 5.25 -75.34375 L 20.765625 -75.34375 L 20.765625 -40.21875 L 20.9375 -40.21875 C 24.96875 -44.238281 29.257812 -46.25 33.8125 -46.25 C 36.03125 -46.25 38.234375 -45.957031 40.421875 -45.375 C 42.617188 -44.789062 44.722656 -43.882812 46.734375 -42.65625 C 48.753906 -41.4375 50.390625 -39.703125 51.640625 -37.453125 C 52.898438 -35.203125 53.53125 -32.585938 53.53125 -29.609375 L 53.53125 0 L 38.015625 0 L 38.015625 -25.40625 C 38.015625 -27.738281 37.269531 -29.78125 35.78125 -31.53125 C 34.289062 -33.289062 32.351562 -34.171875 29.96875 -34.171875 C 27.625 -34.171875 25.503906 -33.265625 23.609375 -31.453125 C 21.710938 -29.640625 20.765625 -27.625 20.765625 -25.40625 L 20.765625 0 Z M 5.25 0 "/></g></g></g><g fill="#000000" fill-opacity="1"><g transform="translate(931.453084, 216.211137)"><g><path d="M 8.3125 -5.5625 C 4.113281 -10.144531 2.015625 -15.765625 2.015625 -22.421875 C 2.015625 -29.085938 4.113281 -34.722656 8.3125 -39.328125 C 12.519531 -43.941406 17.867188 -46.25 24.359375 -46.25 C 30.316406 -46.25 35.222656 -44.382812 39.078125 -40.65625 L 39.078125 -44.9375 L 54.578125 -44.9375 L 54.578125 0 L 39.25 0 L 39.25 -5.078125 L 39.078125 -5.078125 C 35.222656 -0.816406 30.316406 1.3125 24.359375 1.3125 C 17.867188 1.3125 12.519531 -0.976562 8.3125 -5.5625 Z M 21.5 -30.046875 C 19.488281 -28.066406 18.484375 -25.523438 18.484375 -22.421875 C 18.484375 -19.328125 19.445312 -16.800781 21.375 -14.84375 C 23.300781 -12.894531 25.84375 -11.921875 29 -11.921875 C 32.03125 -11.921875 34.523438 -12.910156 36.484375 -14.890625 C 38.441406 -16.878906 39.421875 -19.390625 39.421875 -22.421875 C 39.421875 -25.523438 38.410156 -28.066406 36.390625 -30.046875 C 34.378906 -32.035156 31.914062 -33.03125 29 -33.03125 C 26.019531 -33.03125 23.519531 -32.035156 21.5 -30.046875 Z M 21.5 -30.046875 "/></g></g></g><g fill="#000000" fill-opacity="1"><g transform="translate(991.28623, 216.211137)"><g><path d="M 5.25 0 L 5.25 -44.9375 L 20.765625 -44.9375 L 20.765625 -40.21875 L 20.9375 -40.21875 C 24.96875 -44.238281 29.257812 -46.25 33.8125 -46.25 C 36.03125 -46.25 38.234375 -45.957031 40.421875 -45.375 C 42.617188 -44.789062 44.722656 -43.882812 46.734375 -42.65625 C 48.753906 -41.4375 50.390625 -39.703125 51.640625 -37.453125 C 52.898438 -35.203125 53.53125 -32.585938 53.53125 -29.609375 L 53.53125 0 L 38.015625 0 L 38.015625 -25.40625 C 38.015625 -27.738281 37.269531 -29.78125 35.78125 -31.53125 C 34.289062 -33.289062 32.351562 -34.171875 29.96875 -34.171875 C 27.625 -34.171875 25.503906 -33.265625 23.609375 -31.453125 C 21.710938 -29.640625 20.765625 -27.625 20.765625 -25.40625 L 20.765625 0 Z M 5.25 0 "/></g></g></g><g fill="#000000" fill-opacity="1"><g transform="translate(1049.192097, 216.211137)"><g><path d="M 29.171875 -33.546875 C 26.253906 -33.546875 23.742188 -32.46875 21.640625 -30.3125 C 19.535156 -28.15625 18.484375 -25.554688 18.484375 -22.515625 C 18.484375 -19.421875 19.535156 -16.789062 21.640625 -14.625 C 23.742188 -12.46875 26.253906 -11.390625 29.171875 -11.390625 C 30.578125 -11.390625 31.90625 -11.5625 33.15625 -11.90625 C 34.414062 -12.257812 35.335938 -12.613281 35.921875 -12.96875 L 36.703125 -13.484375 L 41.96875 -2.71875 C 41.5625 -2.425781 40.988281 -2.0625 40.25 -1.625 C 39.519531 -1.1875 37.851562 -0.585938 35.25 0.171875 C 32.65625 0.929688 29.867188 1.3125 26.890625 1.3125 C 20.296875 1.3125 14.5 -1.003906 9.5 -5.640625 C 4.507812 -10.285156 2.015625 -15.851562 2.015625 -22.34375 C 2.015625 -28.882812 4.507812 -34.503906 9.5 -39.203125 C 14.5 -43.898438 20.296875 -46.25 26.890625 -46.25 C 29.867188 -46.25 32.613281 -45.898438 35.125 -45.203125 C 37.644531 -44.503906 39.425781 -43.804688 40.46875 -43.109375 L 41.96875 -42.046875 L 36.703125 -31.453125 C 34.773438 -32.847656 32.265625 -33.546875 29.171875 -33.546875 Z M 29.171875 -33.546875 "/></g></g></g><g fill="#000000" fill-opacity="1"><g transform="translate(1092.205382, 216.211137)"><g><path d="M 50.71875 -20.328125 L 18.140625 -20.328125 C 18.140625 -17.171875 19.160156 -14.832031 21.203125 -13.3125 C 23.242188 -11.789062 25.460938 -11.03125 27.859375 -11.03125 C 30.367188 -11.03125 32.351562 -11.363281 33.8125 -12.03125 C 35.269531 -12.707031 36.9375 -14.039062 38.8125 -16.03125 L 50.03125 -10.421875 C 45.351562 -2.597656 37.582031 1.3125 26.71875 1.3125 C 19.945312 1.3125 14.132812 -1.003906 9.28125 -5.640625 C 4.4375 -10.285156 2.015625 -15.878906 2.015625 -22.421875 C 2.015625 -28.960938 4.4375 -34.566406 9.28125 -39.234375 C 14.132812 -43.910156 19.945312 -46.25 26.71875 -46.25 C 33.84375 -46.25 39.640625 -44.191406 44.109375 -40.078125 C 48.578125 -35.960938 50.8125 -30.078125 50.8125 -22.421875 C 50.8125 -21.367188 50.78125 -20.671875 50.71875 -20.328125 Z M 18.578125 -28.90625 L 35.65625 -28.90625 C 35.300781 -31.25 34.378906 -33.046875 32.890625 -34.296875 C 31.398438 -35.554688 29.488281 -36.1875 27.15625 -36.1875 C 24.582031 -36.1875 22.535156 -35.515625 21.015625 -34.171875 C 19.503906 -32.828125 18.691406 -31.070312 18.578125 -28.90625 Z M 18.578125 -28.90625 "/></g></g></g><g fill="#000000" fill-opacity="1"><g transform="translate(675.868886, 278.015764)"><g><path d="M 2.40625 -33 L 14.4375 -33 C 17.800781 -33 20.519531 -32.128906 22.59375 -30.390625 C 24.675781 -28.660156 25.71875 -26.140625 25.71875 -22.828125 C 25.71875 -19.523438 24.664062 -16.929688 22.5625 -15.046875 C 20.457031 -13.171875 17.75 -12.234375 14.4375 -12.234375 L 9.921875 -12.234375 L 9.921875 0 L 2.40625 0 Z M 9.921875 -18.234375 L 12.046875 -18.234375 C 13.722656 -18.234375 15.097656 -18.570312 16.171875 -19.25 C 17.253906 -19.9375 17.796875 -21.050781 17.796875 -22.59375 C 17.796875 -24.164062 17.253906 -25.289062 16.171875 -25.96875 C 15.097656 -26.65625 13.722656 -27 12.046875 -27 L 9.921875 -27 Z M 9.921875 -18.234375 "/></g></g></g><g fill="#000000" fill-opacity="1"><g transform="translate(702.506243, 278.015764)"><g><path d="M 2.40625 0 L 2.40625 -20.515625 L 9.484375 -20.515625 L 9.484375 -17.5625 L 9.5625 -17.5625 C 9.613281 -17.664062 9.695312 -17.796875 9.8125 -17.953125 C 9.9375 -18.117188 10.195312 -18.398438 10.59375 -18.796875 C 11 -19.203125 11.425781 -19.5625 11.875 -19.875 C 12.332031 -20.195312 12.921875 -20.484375 13.640625 -20.734375 C 14.359375 -20.992188 15.09375 -21.125 15.84375 -21.125 C 16.613281 -21.125 17.367188 -21.015625 18.109375 -20.796875 C 18.859375 -20.585938 19.410156 -20.375 19.765625 -20.15625 L 20.3125 -19.84375 L 17.359375 -13.84375 C 16.484375 -14.582031 15.257812 -14.953125 13.6875 -14.953125 C 12.832031 -14.953125 12.097656 -14.765625 11.484375 -14.390625 C 10.867188 -14.023438 10.429688 -13.570312 10.171875 -13.03125 C 9.921875 -12.5 9.742188 -12.046875 9.640625 -11.671875 C 9.535156 -11.304688 9.484375 -11.015625 9.484375 -10.796875 L 9.484375 0 Z M 2.40625 0 "/></g></g></g><g fill="#000000" fill-opacity="1"><g transform="translate(722.42426, 278.015764)"><g><path d="M 4.34375 -2.4375 C 2.0625 -4.46875 0.921875 -7.066406 0.921875 -10.234375 C 0.921875 -13.410156 2.109375 -16.019531 4.484375 -18.0625 C 6.859375 -20.101562 9.789062 -21.125 13.28125 -21.125 C 16.71875 -21.125 19.613281 -20.09375 21.96875 -18.03125 C 24.332031 -15.976562 25.515625 -13.378906 25.515625 -10.234375 C 25.515625 -7.085938 24.359375 -4.492188 22.046875 -2.453125 C 19.742188 -0.421875 16.820312 0.59375 13.28125 0.59375 C 9.601562 0.59375 6.625 -0.414062 4.34375 -2.4375 Z M 9.8125 -13.71875 C 8.894531 -12.8125 8.4375 -11.648438 8.4375 -10.234375 C 8.4375 -8.828125 8.875 -7.675781 9.75 -6.78125 C 10.632812 -5.882812 11.796875 -5.4375 13.234375 -5.4375 C 14.617188 -5.4375 15.757812 -5.890625 16.65625 -6.796875 C 17.550781 -7.703125 18 -8.847656 18 -10.234375 C 18 -11.648438 17.535156 -12.8125 16.609375 -13.71875 C 15.691406 -14.625 14.566406 -15.078125 13.234375 -15.078125 C 11.878906 -15.078125 10.738281 -14.625 9.8125 -13.71875 Z M 9.8125 -13.71875 "/></g></g></g><g fill="#000000" fill-opacity="1"><g transform="translate(748.861632, 278.015764)"><g><path d="M 3.796875 -2.546875 C 1.878906 -4.640625 0.921875 -7.203125 0.921875 -10.234375 C 0.921875 -13.273438 1.878906 -15.847656 3.796875 -17.953125 C 5.722656 -20.066406 8.164062 -21.125 11.125 -21.125 C 13.84375 -21.125 16.082031 -20.269531 17.84375 -18.5625 L 17.84375 -34.40625 L 24.921875 -34.40625 L 24.921875 0 L 17.921875 0 L 17.921875 -2.3125 L 17.84375 -2.3125 C 16.082031 -0.375 13.84375 0.59375 11.125 0.59375 C 8.164062 0.59375 5.722656 -0.453125 3.796875 -2.546875 Z M 9.8125 -13.71875 C 8.894531 -12.8125 8.4375 -11.648438 8.4375 -10.234375 C 8.4375 -8.828125 8.875 -7.675781 9.75 -6.78125 C 10.632812 -5.882812 11.796875 -5.4375 13.234375 -5.4375 C 14.617188 -5.4375 15.757812 -5.890625 16.65625 -6.796875 C 17.550781 -7.703125 18 -8.847656 18 -10.234375 C 18 -11.648438 17.535156 -12.8125 16.609375 -13.71875 C 15.691406 -14.625 14.566406 -15.078125 13.234375 -15.078125 C 11.878906 -15.078125 10.738281 -14.625 9.8125 -13.71875 Z M 9.8125 -13.71875 "/></g></g></g><g fill="#000000" fill-opacity="1"><g transform="translate(776.178917, 278.015764)"><g><path d="M 9.078125 -20.515625 L 9.078125 -10.765625 C 9.078125 -8.734375 9.382812 -7.289062 10 -6.4375 C 10.613281 -5.582031 11.648438 -5.15625 13.109375 -5.15625 C 14.578125 -5.15625 15.617188 -5.582031 16.234375 -6.4375 C 16.847656 -7.289062 17.15625 -8.734375 17.15625 -10.765625 L 17.15625 -20.515625 L 24.234375 -20.515625 L 24.234375 -9.046875 C 24.234375 -5.628906 23.347656 -3.164062 21.578125 -1.65625 C 19.804688 -0.15625 16.984375 0.59375 13.109375 0.59375 C 9.242188 0.59375 6.425781 -0.15625 4.65625 -1.65625 C 2.882812 -3.164062 2 -5.628906 2 -9.046875 L 2 -20.515625 Z M 9.078125 -20.515625 "/></g></g></g><g fill="#000000" fill-opacity="1"><g transform="translate(802.416315, 278.015764)"><g><path d="M 13.3125 -15.3125 C 11.976562 -15.3125 10.832031 -14.816406 9.875 -13.828125 C 8.914062 -12.847656 8.4375 -11.664062 8.4375 -10.28125 C 8.4375 -8.863281 8.914062 -7.660156 9.875 -6.671875 C 10.832031 -5.691406 11.976562 -5.203125 13.3125 -5.203125 C 13.957031 -5.203125 14.566406 -5.28125 15.140625 -5.4375 C 15.710938 -5.601562 16.132812 -5.765625 16.40625 -5.921875 L 16.765625 -6.15625 L 19.15625 -1.234375 C 18.96875 -1.109375 18.707031 -0.941406 18.375 -0.734375 C 18.039062 -0.535156 17.28125 -0.265625 16.09375 0.078125 C 14.90625 0.421875 13.632812 0.59375 12.28125 0.59375 C 9.269531 0.59375 6.625 -0.460938 4.34375 -2.578125 C 2.0625 -4.703125 0.921875 -7.242188 0.921875 -10.203125 C 0.921875 -13.191406 2.0625 -15.757812 4.34375 -17.90625 C 6.625 -20.050781 9.269531 -21.125 12.28125 -21.125 C 13.632812 -21.125 14.882812 -20.960938 16.03125 -20.640625 C 17.1875 -20.316406 18.003906 -20 18.484375 -19.6875 L 19.15625 -19.203125 L 16.765625 -14.359375 C 15.878906 -14.992188 14.726562 -15.3125 13.3125 -15.3125 Z M 13.3125 -15.3125 "/></g></g></g><g fill="#000000" fill-opacity="1"><g transform="translate(822.054364, 278.015764)"><g><path d="M 3.59375 -20.515625 L 3.59375 -28.15625 L 10.6875 -28.15625 L 10.6875 -20.515625 L 15 -20.515625 L 15 -15.125 L 10.6875 -15.125 L 10.6875 -8.59375 C 10.6875 -6.707031 11.21875 -5.765625 12.28125 -5.765625 C 12.550781 -5.765625 12.832031 -5.816406 13.125 -5.921875 C 13.414062 -6.023438 13.640625 -6.128906 13.796875 -6.234375 L 14.046875 -6.40625 L 15.796875 -0.6875 C 14.273438 0.164062 12.539062 0.59375 10.59375 0.59375 C 9.257812 0.59375 8.113281 0.363281 7.15625 -0.09375 C 6.195312 -0.5625 5.46875 -1.1875 4.96875 -1.96875 C 4.476562 -2.757812 4.125 -3.585938 3.90625 -4.453125 C 3.695312 -5.328125 3.59375 -6.253906 3.59375 -7.234375 L 3.59375 -15.125 L 0.640625 -15.125 L 0.640625 -20.515625 Z M 3.59375 -20.515625 "/></g></g></g><g fill="#000000" fill-opacity="1"><g transform="translate(837.852794, 278.015764)"><g><path d="M 3.078125 -31.953125 C 3.898438 -32.785156 4.882812 -33.203125 6.03125 -33.203125 C 7.1875 -33.203125 8.175781 -32.785156 9 -31.953125 C 9.820312 -31.128906 10.234375 -30.144531 10.234375 -29 C 10.234375 -27.851562 9.820312 -26.863281 9 -26.03125 C 8.175781 -25.207031 7.1875 -24.796875 6.03125 -24.796875 C 4.882812 -24.796875 3.898438 -25.207031 3.078125 -26.03125 C 2.253906 -26.863281 1.84375 -27.851562 1.84375 -29 C 1.84375 -30.144531 2.253906 -31.128906 3.078125 -31.953125 Z M 2.40625 -20.515625 L 2.40625 0 L 9.484375 0 L 9.484375 -20.515625 Z M 2.40625 -20.515625 "/></g></g></g><g fill="#000000" fill-opacity="1"><g transform="translate(849.931597, 278.015764)"><g><path d="M 4.34375 -2.4375 C 2.0625 -4.46875 0.921875 -7.066406 0.921875 -10.234375 C 0.921875 -13.410156 2.109375 -16.019531 4.484375 -18.0625 C 6.859375 -20.101562 9.789062 -21.125 13.28125 -21.125 C 16.71875 -21.125 19.613281 -20.09375 21.96875 -18.03125 C 24.332031 -15.976562 25.515625 -13.378906 25.515625 -10.234375 C 25.515625 -7.085938 24.359375 -4.492188 22.046875 -2.453125 C 19.742188 -0.421875 16.820312 0.59375 13.28125 0.59375 C 9.601562 0.59375 6.625 -0.414062 4.34375 -2.4375 Z M 9.8125 -13.71875 C 8.894531 -12.8125 8.4375 -11.648438 8.4375 -10.234375 C 8.4375 -8.828125 8.875 -7.675781 9.75 -6.78125 C 10.632812 -5.882812 11.796875 -5.4375 13.234375 -5.4375 C 14.617188 -5.4375 15.757812 -5.890625 16.65625 -6.796875 C 17.550781 -7.703125 18 -8.847656 18 -10.234375 C 18 -11.648438 17.535156 -12.8125 16.609375 -13.71875 C 15.691406 -14.625 14.566406 -15.078125 13.234375 -15.078125 C 11.878906 -15.078125 10.738281 -14.625 9.8125 -13.71875 Z M 9.8125 -13.71875 "/></g></g></g><g fill="#000000" fill-opacity="1"><g transform="translate(876.368968, 278.015764)"><g><path d="M 2.40625 0 L 2.40625 -20.515625 L 9.484375 -20.515625 L 9.484375 -18.359375 L 9.5625 -18.359375 C 11.394531 -20.203125 13.351562 -21.125 15.4375 -21.125 C 16.445312 -21.125 17.453125 -20.988281 18.453125 -20.71875 C 19.453125 -20.445312 20.410156 -20.03125 21.328125 -19.46875 C 22.253906 -18.914062 23.003906 -18.125 23.578125 -17.09375 C 24.148438 -16.070312 24.4375 -14.878906 24.4375 -13.515625 L 24.4375 0 L 17.359375 0 L 17.359375 -11.59375 C 17.359375 -12.664062 17.015625 -13.597656 16.328125 -14.390625 C 15.648438 -15.191406 14.769531 -15.59375 13.6875 -15.59375 C 12.613281 -15.59375 11.644531 -15.179688 10.78125 -14.359375 C 9.914062 -13.535156 9.484375 -12.613281 9.484375 -11.59375 L 9.484375 0 Z M 2.40625 0 "/></g></g></g><g fill="#000000" fill-opacity="1"><g transform="translate(902.806352, 278.015764)"><g><path d="M 11.3125 -21.125 C 12.488281 -21.125 13.648438 -20.988281 14.796875 -20.71875 C 15.941406 -20.445312 16.796875 -20.179688 17.359375 -19.921875 L 18.203125 -19.515625 L 15.875 -14.875 C 14.28125 -15.726562 12.757812 -16.15625 11.3125 -16.15625 C 10.519531 -16.15625 9.957031 -16.066406 9.625 -15.890625 C 9.289062 -15.722656 9.125 -15.398438 9.125 -14.921875 C 9.125 -14.816406 9.132812 -14.707031 9.15625 -14.59375 C 9.1875 -14.488281 9.238281 -14.390625 9.3125 -14.296875 C 9.394531 -14.203125 9.46875 -14.117188 9.53125 -14.046875 C 9.601562 -13.984375 9.71875 -13.910156 9.875 -13.828125 C 10.039062 -13.753906 10.171875 -13.695312 10.265625 -13.65625 C 10.359375 -13.613281 10.507812 -13.550781 10.71875 -13.46875 C 10.9375 -13.394531 11.097656 -13.335938 11.203125 -13.296875 C 11.304688 -13.253906 11.484375 -13.191406 11.734375 -13.109375 C 11.992188 -13.035156 12.1875 -12.984375 12.3125 -12.953125 C 13.144531 -12.710938 13.867188 -12.445312 14.484375 -12.15625 C 15.097656 -11.863281 15.742188 -11.460938 16.421875 -10.953125 C 17.097656 -10.453125 17.625 -9.8125 18 -9.03125 C 18.375 -8.257812 18.5625 -7.382812 18.5625 -6.40625 C 18.5625 -1.738281 15.320312 0.59375 8.84375 0.59375 C 7.375 0.59375 5.976562 0.367188 4.65625 -0.078125 C 3.34375 -0.535156 2.390625 -0.988281 1.796875 -1.4375 L 0.921875 -2.15625 L 3.796875 -7 C 4.015625 -6.8125 4.296875 -6.585938 4.640625 -6.328125 C 4.984375 -6.078125 5.609375 -5.734375 6.515625 -5.296875 C 7.421875 -4.859375 8.207031 -4.640625 8.875 -4.640625 C 10.34375 -4.640625 11.078125 -5.132812 11.078125 -6.125 C 11.078125 -6.570312 10.890625 -6.921875 10.515625 -7.171875 C 10.140625 -7.429688 9.503906 -7.71875 8.609375 -8.03125 C 7.722656 -8.351562 7.023438 -8.648438 6.515625 -8.921875 C 5.234375 -9.585938 4.21875 -10.335938 3.46875 -11.171875 C 2.726562 -12.015625 2.359375 -13.128906 2.359375 -14.515625 C 2.359375 -16.597656 3.164062 -18.21875 4.78125 -19.375 C 6.394531 -20.539062 8.570312 -21.125 11.3125 -21.125 Z M 11.3125 -21.125 "/></g></g></g></svg>